<?xml version="1.0" standalone="no"?>
<!DOCTYPE svg PUBLIC "-//W3C//DTD SVG 1.1//EN" "http://www.w3.org/Graphics/SVG/1.1/DTD/svg11.dtd" >
<svg xmlns="http://www.w3.org/2000/svg" xmlns:xlink="http://www.w3.org/1999/xlink" version="1.1">
<metadata>
Created by FontForge 20201107 at Sun Jan 23 06:54:25 2022
 By Jimmy Wärting
</metadata>
<defs>
<font id="SkipStd-B-AlphaNum" horiz-adv-x="1000" vert-adv-y="1000" >
  <font-face 
    font-weight="400"
    font-stretch="normal"
    units-per-em="1000"
    panose-1="2 0 5 3 0 0 0 0 0 0"
    ascent="800"
    descent="-200"
    x-height="537"
    cap-height="787"
    bbox="21 -99 979 859"
    underline-thickness="50"
    underline-position="-100"
    stemh="91"
    stemv="118"
    unicode-range="U+2160-325B"
  />
    <missing-glyph />
    <glyph glyph-name="Japan1.7555" unicode="&#x2460;" 
d="M979 380c0 -264 -215 -479 -479 -479s-479 215 -479 479s215 479 479 479s479 -215 479 -479zM924 380c0 234 -190 424 -424 424s-424 -190 -424 -424s190 -424 424 -424s424 190 424 424zM569 65h-2c-17 2 -34 3 -52 3c-19 0 -38 -1 -54 -3h-2c-6 0 -9 4 -9 9
c2 50 6 113 6 185v320c-94 -53 -155 -80 -160 -80c-4 0 -7 4 -7 8v2c1 4 1 8 1 11c0 14 -4 28 -7 38c-1 3 -2 5 -2 7c0 5 4 8 8 9c78 30 128 57 199 103c4 2 6 5 15 5h7c13 0 30 5 53 10c2 1 4 1 6 1c8 0 11 -5 11 -11c-2 -52 -5 -131 -5 -167v-257c0 -72 3 -130 5 -184
c0 -5 -3 -9 -11 -9z" />
    <glyph glyph-name="Japan1.7556" unicode="&#x2461;" 
d="M979 380c0 -264 -215 -479 -479 -479s-479 215 -479 479s215 479 479 479s479 -215 479 -479zM924 380c0 234 -190 424 -424 424s-424 -190 -424 -424s190 -424 424 -424s424 190 424 424zM705 70h-430c-6 0 -10 16 -10 31c0 11 2 22 6 25c218 185 316 286 316 405
c0 68 -45 110 -109 110c-81 0 -139 -68 -163 -135c-2 -7 -7 -11 -12 -11c-3 0 -7 3 -7 8c-3 37 -13 63 -21 75c-1 3 -2 5 -2 7c0 18 92 116 222 116c140 0 229 -67 229 -181c0 -148 -181 -241 -304 -334c-5 -4 -17 -12 -17 -12h130c52 0 129 7 182 13h4c7 0 9 -2 9 -6v-3
c-4 -23 -13 -58 -13 -85c0 -3 1 -7 1 -10v-2c0 -7 -4 -11 -11 -11z" />
    <glyph glyph-name="Japan1.7557" unicode="&#x2462;" 
d="M979 380c0 -264 -215 -479 -479 -479s-479 215 -479 479s215 479 479 479s479 -215 479 -479zM924 380c0 234 -190 424 -424 424s-424 -190 -424 -424s190 -424 424 -424s424 190 424 424zM414 364h-4c-5 0 -7 1 -7 6v2c1 4 1 12 1 20c0 14 -1 30 -2 37v2c0 5 4 7 13 7
c18 -1 30 -2 41 -2c99 0 129 55 129 112c0 54 -34 90 -101 90c-100 0 -145 -77 -158 -104c-4 -8 -10 -12 -14 -12s-7 3 -7 11c0 33 -4 54 -10 73c-1 2 -1 3 -1 5c0 5 2 9 4 10c73 72 171 76 208 76c134 0 212 -62 212 -148c0 -64 -30 -117 -130 -139
c94 -12 166 -76 166 -157c0 -149 -137 -199 -301 -199c-56 0 -144 26 -187 64c-2 1 -4 5 -4 9c0 2 0 3 1 5c6 19 10 39 10 84c0 6 5 11 11 11s11 -4 14 -12c18 -52 87 -97 154 -97c137 0 167 74 167 138c0 63 -47 111 -150 111c-17 0 -30 0 -55 -3z" />
    <glyph glyph-name="Japan1.7558" unicode="&#x2463;" 
d="M979 380c0 -264 -215 -479 -479 -479s-479 215 -479 479s215 479 479 479s479 -215 479 -479zM924 380c0 234 -190 424 -424 424s-424 -190 -424 -424s190 -424 424 -424s424 190 424 424zM722 181h-4c-37 2 -63 2 -79 2h-16l2 -95c0 -5 -2 -9 -9 -9h-3
c-18 2 -33 3 -48 3c-14 0 -27 -1 -42 -3h-5c-7 0 -7 4 -7 9l2 95h-165c-21 0 -119 -2 -152 -4c-4 0 -7 3 -7 7v2c1 5 2 15 2 24s-1 19 -2 23v3c0 9 7 15 9 17c101 127 197 267 315 433c5 6 10 7 14 7h4c22 0 54 7 73 12c2 0 5 1 7 1c7 0 12 -3 12 -9l2 -426s36 0 92 4h3
c7 0 9 -3 9 -8v-2c-2 -11 -3 -29 -3 -46c0 -12 1 -24 2 -32c0 -2 1 -3 1 -4c0 -3 -2 -4 -7 -4zM512 271v110c0 35 6 202 6 202c-48 -69 -171 -245 -226 -312h220z" />
    <glyph glyph-name="Japan1.7559" unicode="&#x2464;" 
d="M979 380c0 -264 -215 -479 -479 -479s-479 215 -479 479s215 479 479 479s479 -215 479 -479zM924 380c0 234 -190 424 -424 424s-424 -190 -424 -424s190 -424 424 -424s424 190 424 424zM681 576h-296l-18 -139c44 17 103 26 135 26h3c129 0 242 -65 242 -202
c0 -143 -129 -210 -291 -210c-56 0 -141 20 -189 56c-1 1 -4 5 -4 9c0 1 1 3 2 5c7 13 8 38 9 72c0 7 3 10 7 10c5 0 12 -4 16 -11c25 -37 81 -79 144 -79c113 0 170 60 170 158c0 73 -41 129 -146 129c-51 0 -109 -22 -141 -48c-2 -1 -4 -2 -7 -2c-11 0 -24 8 -24 19v3
c8 45 26 189 33 297c0 7 8 11 16 11h110c54 0 193 5 243 13h3c7 0 12 -2 12 -7v-2c-10 -37 -16 -68 -16 -95c0 -8 -5 -13 -13 -13z" />
    <glyph glyph-name="Japan1.7560" unicode="&#x2465;" 
d="M979 380c0 -264 -215 -479 -479 -479s-479 215 -479 479s215 479 479 479s479 -215 479 -479zM924 380c0 234 -190 424 -424 424s-424 -190 -424 -424s190 -424 424 -424s424 190 424 424zM657 693v-2c-1 -5 -2 -11 -2 -18c0 -18 4 -41 8 -51c1 -2 1 -4 1 -5
c0 -5 -3 -8 -7 -8c-3 0 -7 2 -12 5c-21 15 -65 38 -112 38c-113 0 -173 -134 -173 -237c63 64 124 71 161 71c191 0 220 -156 220 -209c0 -138 -107 -217 -243 -217c-195 0 -261 145 -261 280c0 211 110 358 312 363c24 1 42 1 58 1s29 0 43 -1c3 0 7 -4 7 -10zM368 262v-4
c0 -93 52 -147 128 -147c94 0 110 89 110 164c0 43 -11 153 -111 153c-89 0 -127 -73 -127 -166z" />
    <glyph glyph-name="Japan1.7561" unicode="&#x2466;" 
d="M979 380c0 -264 -215 -479 -479 -479s-479 215 -479 479s215 479 479 479s479 -215 479 -479zM924 380c0 234 -190 424 -424 424s-424 -190 -424 -424s190 -424 424 -424s424 190 424 424zM333 44h-5c-5 0 -8 2 -8 5c0 4 2 8 6 14c128 179 245 374 316 487h-95
c-54 0 -194 -3 -244 -11h-3c-6 0 -10 2 -10 7v2c2 15 4 36 4 57c0 17 -1 33 -3 46v2c0 7 6 11 12 11c54 0 185 -3 248 -3h206c9 0 14 -8 14 -13v-20c0 -10 -1 -15 -8 -26c-119 -183 -251 -387 -341 -554c-2 -2 -1 -6 -6 -6c-2 0 -3 1 -5 1c-12 2 -28 4 -44 4
c-12 0 -24 -1 -34 -3z" />
    <glyph glyph-name="Japan1.7562" unicode="&#x2467;" 
d="M979 380c0 -264 -215 -479 -479 -479s-479 215 -479 479s215 479 479 479s479 -215 479 -479zM924 380c0 234 -190 424 -424 424s-424 -190 -424 -424s190 -424 424 -424s424 190 424 424zM591 409c70 -19 164 -74 164 -163c0 -123 -110 -188 -255 -188s-256 57 -256 177
c0 74 64 140 147 163c-48 18 -116 60 -116 145c0 99 111 159 229 159c128 0 220 -59 220 -156c0 -87 -91 -127 -133 -137zM537 440c44 16 77 57 77 108c0 59 -39 102 -114 102c-70 0 -118 -33 -118 -87c0 -61 56 -89 155 -123zM462 368c-37 -6 -103 -42 -103 -123
c0 -91 61 -129 140 -129c67 0 137 24 137 105s-109 123 -174 147z" />
    <glyph glyph-name="Japan1.7563" unicode="&#x2468;" 
d="M979 380c0 -264 -215 -479 -479 -479s-479 215 -479 479s215 479 479 479s479 -215 479 -479zM924 380c0 234 -190 424 -424 424s-424 -190 -424 -424s190 -424 424 -424s424 190 424 424zM308 77v12c0 19 -4 47 -7 61c0 1 -1 3 -1 4c0 4 3 6 6 6c4 0 9 -2 15 -6
c28 -16 78 -33 123 -33c53 0 183 23 191 223c-54 -49 -93 -63 -157 -63c-148 0 -217 98 -217 199c0 117 91 218 245 218c197 0 254 -151 254 -285c0 -220 -113 -332 -308 -354c-8 -1 -18 -1 -29 -1c-34 0 -80 4 -109 10c-3 1 -6 4 -6 9zM500 344c114 0 127 95 127 140
c0 2 -4 161 -120 161c-108 0 -117 -108 -117 -159c0 -79 37 -142 110 -142z" />
    <glyph glyph-name="Japan1.7564" unicode="&#x2469;" 
d="M979 380c0 -264 -215 -479 -479 -479s-479 215 -479 479s215 479 479 479s479 -215 479 -479zM924 380c0 234 -190 424 -424 424s-424 -190 -424 -424s190 -424 424 -424s424 190 424 424zM647 76c-129 0 -168 118 -168 297c0 180 42 308 169 308
c130 0 168 -130 168 -309s-37 -296 -169 -296zM381 87h-3c-12 2 -26 3 -40 3c-15 0 -29 -1 -41 -3h-3c-8 0 -10 6 -10 12c1 47 6 104 6 171v298c-85 -58 -102 -64 -108 -64c-5 0 -7 3 -7 9v5c0 3 1 6 1 8c0 9 -3 13 -6 24c-1 4 -2 7 -2 10c0 4 2 6 8 9c58 27 82 50 135 92
c3 2 6 5 13 5h7c11 0 28 3 44 8c2 1 4 1 6 1c7 0 11 -5 11 -13c-1 -48 -5 -122 -5 -155v-237c0 -67 4 -121 5 -171c0 -5 -2 -12 -11 -12zM648 130c51 0 64 94 64 242c0 125 -3 255 -64 255s-64 -129 -64 -254c0 -147 12 -243 64 -243z" />
    <glyph glyph-name="Japan1.7565" unicode="&#x246a;" 
d="M979 380c0 -264 -215 -479 -479 -479s-479 215 -479 479s215 479 479 479s479 -215 479 -479zM924 380c0 234 -190 424 -424 424s-424 -190 -424 -424s190 -424 424 -424s424 190 424 424zM404 87h-3c-12 2 -27 3 -41 3c-15 0 -30 -1 -42 -3h-3c-8 0 -10 6 -10 12
c1 47 6 104 6 171v298c-90 -61 -103 -64 -108 -64c-4 0 -7 3 -7 10v4c0 3 1 6 1 8c0 9 -3 13 -6 24c-1 4 -2 6 -2 9c0 5 3 7 9 10c58 27 81 50 134 92c3 2 7 5 14 5h7c12 0 30 3 46 8c2 1 4 1 6 1c7 0 10 -5 10 -13c-1 -48 -4 -122 -4 -155v-237c0 -67 4 -121 5 -171
c0 -5 -3 -12 -12 -12zM729 87h-3c-12 2 -27 3 -41 3c-15 0 -30 -1 -42 -3h-3c-8 0 -10 6 -10 12c1 47 6 104 6 171v298c-85 -58 -102 -64 -108 -64c-5 0 -7 3 -7 9v5c0 3 1 6 1 8c0 9 -3 13 -6 24c-1 4 -2 7 -2 10c0 4 2 6 8 9c58 27 82 50 135 92c3 2 6 5 13 5h7
c12 0 30 3 46 8c2 1 4 1 6 1c7 0 11 -5 11 -13c-1 -48 -5 -122 -5 -155v-237c0 -67 4 -121 5 -171c0 -5 -2 -12 -11 -12z" />
    <glyph glyph-name="Japan1.7566" unicode="&#x246b;" 
d="M979 380c0 -264 -215 -479 -479 -479s-479 215 -479 479s215 479 479 479s479 -215 479 -479zM924 380c0 234 -190 424 -424 424s-424 -190 -424 -424s190 -424 424 -424s424 190 424 424zM769 87h-304c-6 0 -11 18 -11 33c0 7 1 13 4 16c123 136 221 248 221 394
c0 58 -20 95 -65 95c-46 0 -91 -66 -104 -127c-2 -9 -9 -14 -14 -14s-9 3 -9 13c-2 29 -15 44 -25 66c-2 4 -3 7 -3 9c0 18 72 107 167 107c100 0 165 -61 165 -171c0 -69 -34 -127 -78 -179s-101 -99 -144 -149l-4 -4h88c36 0 89 9 123 16c2 1 4 1 6 1c6 0 8 -4 8 -10v-4
c-3 -21 -9 -46 -9 -68v-11c0 -10 -4 -13 -12 -13zM378 86h-3c-12 2 -26 3 -40 3c-15 0 -29 -1 -41 -3h-3c-8 0 -10 6 -10 12c1 47 6 104 6 171v298c-90 -61 -103 -64 -108 -64c-4 0 -7 3 -7 10v4c0 3 1 6 1 8c0 9 -3 13 -6 24c-1 4 -2 6 -2 9c0 5 3 7 9 10
c58 27 81 50 134 92c3 2 7 5 14 5h7c11 0 28 3 44 8c2 1 4 1 6 1c7 0 10 -5 10 -13c-1 -48 -5 -122 -5 -155v-237c0 -67 5 -121 6 -171c0 -5 -3 -12 -12 -12z" />
    <glyph glyph-name="Japan1.7567" unicode="&#x246c;" 
d="M979 380c0 -264 -215 -479 -479 -479s-479 215 -479 479s215 479 479 479s479 -215 479 -479zM924 380c0 234 -190 424 -424 424s-424 -190 -424 -424s190 -424 424 -424s424 190 424 424zM463 206v12c0 8 5 12 10 12s11 -4 13 -13c12 -44 60 -84 105 -84
c92 0 107 82 107 131c0 57 -22 107 -91 107c-11 0 -21 0 -38 -3h-5c-6 0 -8 2 -8 6c0 2 1 4 1 6c1 5 1 11 1 17c0 7 0 15 -2 21c0 2 -1 4 -1 6c0 5 3 8 11 8h3c13 0 21 -2 29 -2c17 0 81 3 81 113c0 42 -18 81 -63 81h-2c-40 0 -80 -34 -105 -93c-4 -10 -9 -14 -14 -14
s-10 6 -10 15c0 28 -4 43 -13 65c-1 1 -1 3 -1 4c0 6 52 81 160 81c90 0 154 -51 154 -138c0 -65 -34 -112 -86 -136c68 -16 113 -70 113 -142c0 -98 -52 -189 -216 -189c-56 0 -143 41 -143 66c0 3 1 7 3 12c6 13 7 35 7 51zM377 87h-3c-12 2 -26 3 -40 3
c-15 0 -29 -1 -41 -3h-3c-8 0 -10 6 -10 12c1 47 6 104 6 171v298c-90 -61 -103 -64 -108 -64c-4 0 -7 3 -7 10v4c0 3 1 6 1 8c0 9 -3 13 -6 24c-1 4 -2 6 -2 9c0 5 3 7 9 10c58 27 81 50 134 92c3 2 7 5 14 5h7c11 0 28 3 44 8c2 1 4 1 6 1c7 0 10 -5 10 -13
c-1 -48 -5 -122 -5 -155v-237c0 -67 5 -121 6 -171c0 -5 -3 -12 -12 -12z" />
    <glyph glyph-name="Japan1.7568" unicode="&#x246d;" 
d="M979 380c0 -264 -215 -479 -479 -479s-479 215 -479 479s215 479 479 479s479 -215 479 -479zM924 380c0 234 -190 424 -424 424s-424 -190 -424 -424s190 -424 424 -424s424 190 424 424zM816 180h-4c-30 2 -52 3 -60 3l4 -84c0 -13 -5 -13 -7 -13s-3 1 -5 1
c-10 2 -24 3 -37 3c-14 0 -29 -1 -38 -3c-2 -1 -4 -1 -6 -1c-7 0 -7 6 -7 15l2 82h-115c-14 0 -77 -2 -98 -4h-2c-5 0 -7 2 -7 6c0 1 1 3 1 4c1 4 1 8 1 12c0 6 0 12 -1 17v4c0 6 2 10 6 15c59 116 135 264 206 420c3 7 8 10 13 10h7c18 0 55 3 67 8c3 1 5 2 8 2
c5 0 9 -4 9 -12v-403c9 0 31 2 59 5h3c8 0 10 -3 10 -7c0 -2 0 -5 -1 -7c-2 -11 -4 -22 -4 -34c0 -9 1 -18 3 -26c0 -2 1 -4 1 -6c0 -5 -3 -7 -8 -7zM373 87h-3c-12 2 -26 3 -39 3c-15 0 -29 -1 -41 -3h-3c-8 0 -10 6 -10 12c1 47 6 104 6 171v298
c-90 -61 -103 -64 -108 -64c-4 0 -7 3 -7 10v4c0 3 1 6 1 8c0 9 -3 13 -6 24c-1 4 -2 6 -2 9c0 5 3 7 9 10c58 27 81 50 134 92c3 2 7 5 14 5h7c11 0 27 3 43 8c2 1 4 1 6 1c7 0 10 -5 10 -13c-1 -48 -5 -122 -5 -155v-237c0 -67 5 -121 6 -171c0 -5 -3 -12 -12 -12z
M659 261v110c0 25 4 143 6 190c-32 -76 -115 -238 -146 -300h140z" />
    <glyph glyph-name="Japan1.7569" unicode="&#x246e;" 
d="M979 380c0 -264 -215 -479 -479 -479s-479 215 -479 479s215 479 479 479s479 -215 479 -479zM924 380c0 234 -190 424 -424 424s-424 -190 -424 -424s190 -424 424 -424s424 190 424 424zM758 579h-195l-20 -145c28 11 68 21 90 21c107 0 188 -60 188 -184
c0 -116 -84 -201 -227 -201c-64 0 -149 39 -149 58c0 2 1 5 2 8c5 11 7 29 7 61c0 11 3 14 6 14c5 0 12 -7 16 -13c21 -34 74 -67 118 -67c72 0 106 51 106 147c0 61 -18 116 -87 116c-35 0 -72 -13 -103 -33c-4 -2 -8 -3 -13 -3c-13 0 -26 7 -26 17v2c6 42 25 171 32 271
c1 9 7 14 15 14h85c38 0 130 4 165 11c3 0 5 1 7 1c5 0 9 -2 9 -7c0 -2 -1 -4 -2 -7c-7 -23 -12 -42 -12 -66c0 -8 -3 -15 -12 -15zM375 82h-3c-12 2 -26 3 -39 3c-15 0 -29 -1 -41 -3h-3c-8 0 -10 6 -10 12c1 47 6 104 6 171v298c-85 -58 -102 -64 -108 -64c-5 0 -7 3 -7 9
v5c0 3 1 6 1 8c0 9 -3 13 -6 24c-1 4 -2 7 -2 10c0 4 2 6 8 9c58 27 82 50 135 92c3 2 6 5 13 5h7c11 0 27 3 43 8c2 1 4 1 6 1c7 0 11 -5 11 -13c-1 -48 -5 -122 -5 -155v-237c0 -67 4 -121 5 -171c0 -5 -2 -12 -11 -12z" />
    <glyph glyph-name="Japan1.7570" unicode="&#x246f;" 
d="M979 380c0 -264 -215 -479 -479 -479s-479 215 -479 479s215 479 479 479s479 -215 479 -479zM924 380c0 234 -190 424 -424 424s-424 -190 -424 -424s190 -424 424 -424s424 190 424 424zM764 669v-11c0 -17 3 -38 6 -49c1 -3 1 -6 1 -8c0 -8 -3 -11 -7 -11s-9 3 -13 8
c-12 15 -38 36 -70 36c-81 0 -107 -145 -112 -209c41 47 79 48 99 48c64 0 154 -31 154 -196c0 -94 -44 -201 -172 -201c-139 0 -183 138 -183 264c0 196 70 334 216 341c13 0 24 1 34 1c15 0 27 -1 40 -2c4 0 7 -4 7 -11zM376 87h-3c-12 2 -26 3 -40 3c-15 0 -29 -1 -41 -3
h-3c-8 0 -10 6 -10 12c1 47 6 104 6 171v298c-85 -58 -102 -64 -108 -64c-5 0 -7 3 -7 9v5c0 3 1 6 1 8c0 9 -3 13 -6 24c-1 4 -2 7 -2 10c0 4 2 6 8 9c58 27 82 50 135 92c3 2 6 5 13 5h7c11 0 28 3 44 8c2 1 4 1 6 1c7 0 11 -5 11 -13c-1 -48 -5 -122 -5 -155v-237
c0 -67 4 -121 5 -171c0 -5 -2 -12 -11 -12zM651 124c57 0 66 84 66 156c0 88 -21 140 -64 140c-55 0 -79 -67 -79 -156c0 -18 2 -140 77 -140z" />
    <glyph glyph-name="Japan1.7571" unicode="&#x2470;" 
d="M979 380c0 -264 -215 -479 -479 -479s-479 215 -479 479s215 479 479 479s479 -215 479 -479zM924 380c0 234 -190 424 -424 424s-424 -190 -424 -424s190 -424 424 -424s424 190 424 424zM574 76h-3c-8 2 -23 4 -39 4c-11 0 -22 -1 -30 -3c-3 -1 -6 -1 -8 -1
c-5 0 -8 2 -8 6s3 11 7 19c90 163 188 358 240 464h-77c-37 0 -132 -1 -167 -8h-5c-6 0 -9 2 -9 8v4c2 14 4 28 4 43c0 10 -1 20 -3 31c0 2 -1 4 -1 5c0 10 7 11 13 11c37 0 127 -2 170 -2h152c10 0 18 -12 18 -17v-25c-1 -6 -2 -11 -6 -19c-81 -170 -176 -359 -238 -513
c-1 -3 -4 -7 -10 -7zM390 77h-3c-12 2 -26 3 -40 3c-15 0 -29 -1 -41 -3h-3c-8 0 -10 6 -10 12c1 47 6 104 6 171v298c-90 -61 -103 -64 -108 -64c-4 0 -7 3 -7 10v4c0 3 1 6 1 8c0 9 -3 13 -6 24c-1 4 -2 6 -2 9c0 5 3 7 9 10c58 27 81 50 134 92c3 2 7 5 14 5h7
c11 0 28 3 44 8c2 1 4 1 6 1c7 0 10 -5 10 -13c-1 -48 -5 -122 -5 -155v-237c0 -67 5 -121 6 -171c0 -5 -3 -12 -12 -12z" />
    <glyph glyph-name="Japan1.7572" unicode="&#x2471;" 
d="M979 380c0 -264 -215 -479 -479 -479s-479 215 -479 479s215 479 479 479s479 -215 479 -479zM924 380c0 234 -190 424 -424 424s-424 -190 -424 -424s190 -424 424 -424s424 190 424 424zM716 408c19 -9 105 -54 105 -154c0 -117 -81 -178 -182 -178
c-100 0 -180 53 -180 167c0 73 43 124 98 152c-33 21 -76 64 -76 134c0 100 79 152 161 152c88 0 158 -55 158 -147c0 -70 -45 -111 -84 -126zM379 87h-3c-12 2 -26 3 -40 3c-15 0 -29 -1 -41 -3h-3c-8 0 -10 6 -10 12c1 47 6 104 6 171v298c-90 -61 -103 -64 -108 -64
c-4 0 -7 3 -7 10v4c0 3 1 6 1 8c0 9 -3 13 -6 24c-1 4 -2 6 -2 9c0 5 3 7 9 10c58 27 81 50 134 92c3 2 7 5 14 5h7c11 0 28 3 44 8c2 1 4 1 6 1c7 0 10 -5 10 -13c-1 -48 -5 -122 -5 -155v-237c0 -67 5 -121 6 -171c0 -5 -3 -12 -12 -12zM608 369c-24 -9 -55 -43 -55 -116
c0 -80 37 -123 88 -123c43 0 85 28 85 101c0 68 -73 115 -118 138zM665 433c47 32 47 89 47 101c0 62 -25 99 -73 99c-37 0 -70 -35 -70 -85c0 -28 6 -71 96 -115z" />
    <glyph glyph-name="Japan1.7573" unicode="&#x2472;" 
d="M979 380c0 -264 -215 -479 -479 -479s-479 215 -479 479s215 479 479 479s479 -215 479 -479zM924 380c0 234 -190 424 -424 424s-424 -190 -424 -424s190 -424 424 -424s424 190 424 424zM717 340c-31 -35 -60 -47 -101 -47c-103 0 -154 89 -154 183
c0 110 57 207 175 207c144 0 179 -145 179 -269c0 -110 -20 -334 -254 -334c-64 0 -64 6 -64 30c0 15 -2 34 -5 46c-1 4 -2 7 -2 10c0 5 2 7 6 7c3 0 9 -3 14 -6c20 -12 54 -28 84 -28c58 0 117 68 122 201zM381 87h-3c-12 2 -26 3 -40 3c-15 0 -29 -1 -41 -3h-3
c-8 0 -10 6 -10 12c1 47 6 104 6 171v298c-85 -58 -102 -64 -108 -64c-5 0 -7 3 -7 9v5c0 3 1 6 1 8c0 9 -3 13 -6 24c-1 4 -2 7 -2 10c0 4 2 6 8 9c58 27 82 50 135 92c3 2 6 5 13 5h7c11 0 28 3 44 8c2 1 4 1 6 1c7 0 11 -5 11 -13c-1 -48 -5 -122 -5 -155v-237
c0 -67 4 -121 5 -171c0 -5 -2 -12 -11 -12zM632 348c64 0 79 83 79 123c0 31 -5 166 -75 166c-24 0 -74 -11 -74 -155c0 -74 25 -134 70 -134z" />
    <glyph glyph-name="Japan1.7574" unicode="&#x2473;" 
d="M979 380c0 -264 -215 -479 -479 -479s-479 215 -479 479s215 479 479 479s479 -215 479 -479zM924 380c0 234 -190 424 -424 424s-424 -190 -424 -424s190 -424 424 -424s424 190 424 424zM677 80c-116 0 -151 119 -151 297s36 308 151 308c118 0 152 -131 152 -309
s-33 -296 -152 -296zM462 94h-251c-7 0 -11 21 -11 39c0 10 1 19 4 22c110 141 183 245 183 380c0 58 -19 94 -56 94c-54 0 -85 -102 -89 -125c-2 -10 -8 -16 -14 -16c-4 0 -9 4 -9 15c-2 28 -12 41 -22 65c-1 4 -2 7 -2 9c0 23 66 109 146 109c89 0 146 -61 146 -172
c0 -122 -93 -210 -169 -297l-28 -32h70c31 0 78 8 108 15c2 0 4 1 5 1c7 0 8 -4 8 -10v-5c-3 -22 -7 -43 -7 -65v-13c0 -10 -4 -14 -12 -14zM677 137c43 0 56 91 56 239c0 126 -3 252 -56 252c-52 0 -56 -125 -56 -251c0 -148 11 -240 56 -240z" />
    <glyph glyph-name="Japan1.7575" unicode="&#x2160;" 
d="M572 -46h-3c-19 4 -45 6 -71 6c-25 0 -49 -2 -67 -6h-3c-7 0 -8 8 -8 13c1 83 6 151 6 246v324c0 90 -3 153 -6 227c0 6 0 13 9 13h2c9 -1 18 -1 28 -1c37 0 81 6 109 11h3c8 0 9 -7 9 -12c-2 -72 -6 -148 -6 -238v-324c0 -95 5 -158 6 -246c0 -5 0 -13 -8 -13z" />
    <glyph glyph-name="Japan1.7576" unicode="&#x2161;" 
d="M736 -46h-3c-19 4 -44 6 -70 6c-24 0 -48 -2 -66 -6h-3c-7 0 -8 8 -8 13c1 83 6 151 6 246v324c0 90 -3 153 -6 227c0 6 0 13 9 13h2c9 -1 18 -1 27 -1c38 0 80 6 108 11h3c8 0 9 -7 9 -12c-2 -72 -6 -148 -6 -238v-324c0 -95 5 -158 6 -246c0 -5 0 -13 -8 -13zM406 -46
h-3c-19 4 -44 6 -70 6c-24 0 -48 -2 -66 -6h-3c-7 0 -8 8 -8 13c1 83 6 151 6 246v324c0 90 -3 153 -6 227c0 6 0 13 9 13h2c9 -1 18 -1 27 -1c38 0 80 6 108 11h3c8 0 9 -7 9 -12c-2 -72 -6 -148 -6 -238v-324c0 -95 5 -158 6 -246c0 -5 0 -13 -8 -13z" />
    <glyph glyph-name="Japan1.7577" unicode="&#x2162;" 
d="M830 -46h-3c-19 4 -43 6 -67 6c-23 0 -45 -2 -63 -6h-3c-7 0 -7 8 -7 13c1 83 6 151 6 246v324c0 90 -3 153 -6 227c0 13 7 13 8 13h2c9 -1 18 -1 27 -1c35 0 74 6 102 11h3c8 0 9 -7 9 -12c-2 -72 -6 -148 -6 -238v-324c0 -95 5 -158 6 -246c0 -5 0 -13 -8 -13zM306 -46
h-3c-19 4 -43 6 -67 6c-23 0 -45 -2 -63 -6h-3c-7 0 -8 8 -8 13c1 83 6 151 6 246v324c0 90 -3 153 -6 227c0 6 0 13 9 13h2c9 -1 18 -1 27 -1c35 0 74 6 102 11h3c8 0 8 -7 8 -12c-2 -72 -6 -148 -6 -238v-324c0 -95 5 -158 6 -246c0 -12 -4 -13 -7 -13zM568 -46h-3
c-19 4 -43 6 -67 6c-23 0 -45 -2 -63 -6h-3c-7 0 -8 8 -8 13c1 83 7 151 7 246v324c0 90 -4 153 -7 227c0 6 0 13 9 13h2c9 -1 18 -1 27 -1c35 0 74 6 102 11h3c8 0 9 -7 9 -12c-2 -72 -7 -148 -7 -238v-324c0 -95 6 -158 7 -246c0 -5 0 -13 -8 -13z" />
    <glyph glyph-name="Japan1.7578" unicode="&#x2163;" 
d="M697 -44h-3c-8 2 -27 4 -44 4c-14 0 -26 -1 -33 -3h-3c-9 0 -11 10 -13 14c-67 197 -166 536 -253 788c0 1 -1 2 -1 4c0 5 3 13 10 13h1c7 -1 15 -1 22 -1c40 0 74 11 102 15h1c5 0 7 -4 8 -8c70 -248 186 -652 186 -652l112 400c12 42 38 162 56 239c1 5 3 8 7 8h2
c5 -1 11 -2 19 -2c26 0 63 6 75 10h1c6 0 9 -9 9 -14v-3c-29 -87 -70 -215 -80 -249c0 0 -114 -391 -166 -547c-1 -4 -6 -16 -15 -16zM282 -46h-3c-19 4 -43 6 -66 6s-45 -2 -63 -6h-3c-7 0 -7 8 -7 13c1 83 6 151 6 246v324c0 90 -3 153 -6 227c0 13 7 13 8 13h2
c9 -1 17 -1 27 -1c35 0 73 6 101 11h3c8 0 9 -7 9 -12c-2 -72 -7 -148 -7 -238v-324c0 -95 6 -158 7 -246c0 -5 0 -13 -8 -13z" />
    <glyph glyph-name="Japan1.7579" unicode="&#x2164;" 
d="M554 -44h-4c-11 2 -24 4 -36 4c-10 0 -20 -1 -28 -3h-4c-11 0 -15 10 -17 14c-85 197 -239 536 -350 788c0 1 -1 3 -1 4c0 6 3 13 12 13h1c9 -1 18 -1 26 -1c48 0 77 11 113 15h2c5 0 7 -4 8 -8c89 -248 268 -644 268 -644l144 392c15 42 54 162 76 239c2 5 5 8 10 8h2
c6 -1 14 -2 22 -2c27 0 61 6 77 10h2c6 0 10 -9 10 -14v-3c-37 -87 -91 -215 -104 -249c0 0 -145 -391 -211 -547c-2 -4 -7 -16 -18 -16z" />
    <glyph glyph-name="Japan1.7580" unicode="&#x2165;" 
d="M408 -44h-3c-8 2 -27 4 -44 4c-14 0 -26 -1 -33 -3h-3c-9 0 -11 10 -13 14c-67 197 -171 536 -258 788c0 1 -1 3 -1 4c0 6 3 13 9 13h1c7 -1 15 -1 22 -1c40 0 75 11 103 15h1c5 0 7 -4 8 -8c70 -248 191 -652 191 -652l109 400c11 42 35 162 53 239c1 5 4 8 8 8h2
c5 -1 11 -2 19 -2c26 0 63 6 75 10h1c5 0 9 -8 9 -14c0 -1 -1 -2 -1 -3c-29 -87 -68 -215 -78 -249c0 0 -111 -391 -163 -547c-1 -4 -5 -16 -14 -16zM862 -46h-3c-19 4 -43 6 -66 6s-45 -2 -63 -6h-3c-7 0 -8 8 -8 13c1 83 7 151 7 246v324c0 90 -4 153 -7 227
c0 6 0 13 9 13h2c9 -1 17 -1 26 -1c36 0 73 6 101 11h3c8 0 9 -7 9 -12c-2 -72 -6 -148 -6 -238v-324c0 -95 5 -158 6 -246c0 -12 -4 -13 -7 -13z" />
    <glyph glyph-name="Japan1.7581" unicode="&#x2166;" 
d="M333 115l78 415c8 42 26 162 40 239c2 7 4 8 7 8h3c4 -1 9 -2 15 -2c18 0 42 5 51 9c2 1 4 1 6 1c7 0 10 -5 10 -11c0 -2 0 -4 -1 -6c-22 -87 -48 -215 -55 -249c0 0 -78 -391 -118 -547c-1 -4 -3 -17 -11 -17c-1 0 -3 1 -4 1c-6 2 -27 4 -45 4c-15 0 -28 -1 -33 -3
c-2 -1 -3 -1 -5 -1c-8 0 -10 11 -11 15c-51 197 -135 536 -202 788c-1 2 -1 4 -1 6c0 7 4 11 9 11h1c6 -1 12 -1 18 -1c34 0 75 11 96 15h1c3 0 5 -4 6 -8c53 -248 145 -667 145 -667zM912 -46h-3c-17 4 -38 6 -59 6c-20 0 -39 -2 -55 -6h-2c-7 0 -7 8 -7 13
c1 83 5 151 5 246v324c0 90 -2 153 -5 227c0 8 1 13 7 13h2c8 -1 16 -1 24 -1c31 0 64 6 89 11h3c7 0 7 -7 7 -12c-2 -72 -6 -148 -6 -238v-324c0 -95 5 -158 6 -246c0 -12 -4 -13 -6 -13zM712 -46h-3c-17 4 -38 6 -59 6c-20 0 -39 -2 -55 -6h-2c-7 0 -7 8 -7 13
c1 83 5 151 5 246v324c0 90 -2 153 -5 227c0 8 1 13 7 13h2c8 -1 16 -1 24 -1c31 0 64 6 89 11h3c7 0 7 -7 7 -12c-2 -72 -6 -148 -6 -238v-324c0 -95 5 -158 6 -246c0 -12 -4 -13 -6 -13z" />
    <glyph glyph-name="Japan1.7582" unicode="&#x2167;" 
d="M282 116l70 414c7 42 24 162 36 239c1 7 4 8 6 8h3c4 -1 10 -2 16 -2c17 0 40 4 48 8c3 1 5 2 7 2c5 0 7 -4 7 -9c0 -2 0 -5 -1 -8c-20 -87 -42 -215 -49 -249c0 0 -72 -384 -106 -547c-1 -4 -3 -17 -10 -17c-1 0 -2 1 -3 1c-6 2 -26 4 -45 4c-15 0 -29 -1 -33 -3
c-2 -1 -3 -1 -4 -1c-8 0 -9 11 -10 15c-45 197 -116 536 -175 788c0 2 -1 4 -1 5c0 7 5 12 10 12h1c5 -1 10 -1 16 -1c32 0 72 11 92 15h1c3 0 6 -4 7 -8c47 -248 117 -666 117 -666zM922 -46h-3c-17 4 -34 6 -50 6s-31 -2 -46 -6h-2c-6 0 -7 8 -7 13c1 83 5 151 5 246v324
c0 90 -3 153 -5 227c0 6 0 13 8 13h1c7 -1 14 -1 21 -1c26 0 49 6 74 11h3c7 0 8 -7 8 -12c-2 -72 -6 -148 -6 -238v-324c0 -95 5 -158 6 -246c0 -5 0 -13 -7 -13zM606 -46h-3c-17 4 -34 6 -50 6s-31 -2 -46 -6h-2c-6 0 -7 8 -7 13c1 83 6 151 6 246v324c0 90 -4 153 -6 227
c0 6 0 13 8 13h1c7 -1 14 -1 21 -1c26 0 49 6 74 11h3c7 0 8 -7 8 -12c-2 -72 -6 -148 -6 -238v-324c0 -95 5 -158 6 -246c0 -5 0 -13 -7 -13zM765 -46h-3c-17 4 -34 6 -50 6s-31 -2 -46 -6h-2c-6 0 -7 8 -7 13c1 83 6 151 6 246v324c0 90 -4 153 -6 227c0 6 0 13 8 13h1
c7 -1 14 -1 21 -1c26 0 49 6 74 11h3c7 0 8 -7 8 -12c-2 -72 -6 -148 -6 -238v-324c0 -95 5 -158 6 -246c0 -5 0 -13 -7 -13z" />
    <glyph glyph-name="Japan1.7583" unicode="&#x2168;" 
d="M936 -44h-1c-21 2 -44 3 -65 3c-28 0 -54 -2 -72 -5h-1c-3 0 -6 2 -8 5c-47 99 -115 222 -177 335c-27 -49 -82 -154 -82 -154c-18 -34 -61 -121 -94 -181c-2 -3 -4 -6 -8 -6h-1c-15 4 -34 7 -51 7c-12 0 -23 -2 -32 -4c-2 0 -3 -1 -5 -1c-5 0 -9 4 -9 8c0 2 1 5 2 7
c41 68 108 176 122 200c0 0 80 134 116 196c-70 136 -140 268 -210 394c-1 2 -1 4 -1 6c0 5 2 10 9 10h12c34 0 75 11 106 16h2c3 0 7 -2 8 -5c43 -87 106 -209 156 -306c43 79 115 240 137 290c2 3 5 6 8 6h2c6 -1 12 -2 19 -2c25 0 57 7 77 12c2 0 4 1 5 1c5 0 7 -3 7 -7
c0 -3 -1 -6 -4 -11c-37 -58 -84 -141 -101 -171c0 0 -74 -128 -109 -188c81 -148 172 -302 252 -440c1 -2 2 -4 2 -6c0 -4 -4 -9 -11 -9zM282 -46h-3c-19 4 -43 6 -66 6s-45 -2 -63 -6h-3c-7 0 -7 8 -7 13c1 83 6 151 6 246v324c0 90 -3 153 -6 227c0 13 7 13 8 13h2
c9 -1 17 -1 27 -1c35 0 73 6 101 11h3c8 0 9 -7 9 -12c-2 -72 -7 -148 -7 -238v-324c0 -95 6 -158 7 -246c0 -5 0 -13 -8 -13z" />
    <glyph glyph-name="Japan1.7584" unicode="&#x2169;" 
d="M877 -44h-2c-27 2 -53 3 -78 3c-33 0 -62 -2 -85 -5h-2c-3 0 -6 2 -8 5c-59 99 -140 226 -219 339c-35 -49 -115 -158 -115 -158c-24 -33 -81 -121 -123 -181c-2 -3 -5 -6 -9 -6h-2c-19 4 -40 7 -59 7c-13 0 -25 -2 -36 -4c-2 0 -4 -1 -6 -1c-6 0 -11 3 -11 8
c0 2 1 4 3 7c144 185 234 302 304 396c-89 136 -179 268 -268 394c-1 2 -2 4 -2 6c0 5 3 10 11 10h15c41 0 84 11 123 16h2c5 0 10 -2 11 -5c55 -87 129 -209 193 -306c87 126 155 231 187 290c3 3 7 6 11 6h2c7 -1 15 -2 23 -2c29 0 61 7 87 12c2 0 4 1 6 1
c6 0 10 -3 10 -7c0 -3 -2 -7 -5 -11c-35 -42 -56 -70 -268 -359c103 -148 219 -302 321 -440c1 -2 2 -4 2 -6c0 -4 -4 -9 -13 -9z" />
    <glyph glyph-name="Japan1.8061" 
d="M869 -53c-51 0 -92 42 -92 93s41 92 92 92s92 -41 92 -92s-41 -93 -92 -93zM410 -60c-218 0 -326 156 -326 419c0 280 128 436 330 436c214 0 324 -174 324 -437s-107 -418 -328 -418zM412 3c146 0 159 158 159 355c0 184 -10 374 -159 374s-161 -189 -161 -373
c0 -179 4 -356 161 -356z" />
    <glyph glyph-name="Japan1.8062" unicode="&#x2488;" 
d="M515 -47h-3c-19 3 -42 5 -64 5c-27 0 -53 -2 -72 -5h-2c-7 0 -12 6 -12 12c2 67 8 151 8 246v437c-176 -108 -210 -117 -211 -117c-4 0 -7 6 -7 11v2c1 5 1 9 1 13c0 16 -5 26 -9 39c-1 3 -1 6 -1 9c0 7 4 10 9 12c94 39 170 89 256 149c4 3 9 6 18 6h8c18 0 46 6 74 13
h4c7 0 15 -4 15 -13c-2 -69 -7 -174 -7 -222v-340c0 -95 6 -173 8 -245c0 -5 -4 -12 -13 -12zM870 -53c-51 0 -92 42 -92 93s41 92 92 92s92 -41 92 -92s-41 -93 -92 -93z" />
    <glyph glyph-name="Japan1.8063" unicode="&#x2489;" 
d="M658 -42h-542c-8 0 -12 15 -12 31c0 12 3 24 8 29c294 271 394 418 394 551c0 92 -56 154 -134 154c-52 0 -154 -28 -197 -161c-3 -9 -8 -14 -13 -14c-4 0 -8 4 -8 11c-4 49 -15 68 -25 84c-1 4 -2 7 -2 10c0 24 108 141 266 141c169 0 277 -84 277 -239
c0 -181 -226 -314 -375 -453c-11 -10 -21 -19 -33 -28h178c63 0 172 6 231 17h5c7 0 11 -4 11 -10v-2c-4 -30 -14 -61 -14 -92v-14c0 -10 -6 -15 -15 -15zM962 40c0 -51 -41 -92 -92 -92s-92 41 -92 92s41 92 92 92s92 -41 92 -92z" />
    <glyph glyph-name="Japan1.8064" unicode="&#x248a;" 
d="M291 357h-4c-7 0 -9 2 -9 8v3c1 6 1 13 1 21c0 12 -1 26 -2 36v2c0 7 4 10 15 10c22 -1 36 -2 50 -2c110 0 143 74 155 155c1 7 1 13 1 19c0 64 -47 114 -124 114c-51 0 -145 -22 -194 -127c-4 -9 -11 -13 -17 -13c-5 0 -10 4 -10 12c0 43 -4 60 -11 85c-1 2 -1 4 -1 7
c0 25 106 107 262 107c161 0 256 -70 256 -189c0 -69 -23 -146 -157 -192c114 -15 200 -102 200 -209c0 -79 -29 -264 -371 -264c-68 0 -164 26 -224 78c-2 2 -5 8 -5 15c0 1 1 3 1 5c7 25 12 30 12 90c0 8 5 12 11 12s12 -4 16 -14c24 -62 102 -114 183 -114
c167 0 214 120 214 196c0 85 -57 154 -181 154c-20 0 -37 -1 -67 -5zM870 -53c-51 0 -93 42 -93 93s42 92 93 92s92 -41 92 -92s-41 -93 -92 -93z" />
    <glyph glyph-name="Japan1.8065" unicode="&#x248b;" 
d="M591 -47h-2c-22 3 -41 5 -58 5c-16 0 -30 -2 -47 -5h-4c-8 0 -10 6 -10 12l2 126h-199c-25 0 -144 -1 -184 -4c-4 0 -8 4 -8 9v2c1 6 2 12 2 17c0 7 -1 13 -2 20v4c0 12 8 19 10 21c122 168 251 383 394 603c5 8 12 11 17 11h9c23 0 47 6 68 11c4 1 8 2 11 2
c7 0 11 -3 11 -10l2 -573h9c17 0 58 1 109 5h2c6 0 12 -4 12 -11v-2c-2 -15 -4 -39 -4 -60c0 -13 0 -26 2 -36v-2c0 -7 -6 -10 -12 -10c-49 3 -86 3 -105 3h-15l2 -126c0 -6 -3 -12 -12 -12zM471 202v152c0 47 7 262 7 262c-58 -91 -200 -325 -267 -414h260zM869 -53
c-51 0 -92 42 -92 93s41 92 92 92s92 -41 92 -92s-41 -93 -92 -93z" />
    <glyph glyph-name="Japan1.8066" unicode="&#x248c;" 
d="M620 658h-351l-27 -206c55 17 123 25 162 25h3c156 0 292 -85 292 -259c0 -171 -136 -279 -358 -279c-68 0 -156 25 -221 68c-2 1 -5 6 -5 12c0 2 1 5 2 7c8 17 11 38 12 82c0 8 3 11 7 11s11 -4 17 -12c37 -47 95 -92 170 -92c207 0 211 186 211 214
c0 99 -54 175 -182 175c-61 0 -123 -20 -164 -46c-3 -2 -6 -2 -10 -2c-12 0 -26 8 -26 20v3c10 60 32 238 41 381c1 10 9 15 19 15h131c65 0 235 6 295 17c2 0 4 1 5 1c7 0 11 -4 11 -10v-3c-12 -49 -19 -69 -19 -105c0 -11 -5 -17 -15 -17zM870 -53c-51 0 -92 42 -92 93
s41 92 92 92s92 -41 92 -92s-41 -93 -92 -93z" />
    <glyph glyph-name="Japan1.8067" unicode="&#x248d;" 
d="M623 780v-2c-1 -6 -1 -12 -1 -18c0 -21 3 -43 8 -58c1 -3 1 -5 1 -7c0 -6 -3 -9 -7 -9s-9 2 -15 6c-26 18 -79 40 -135 40c-152 0 -215 -202 -215 -321c70 63 116 86 198 86c202 0 272 -145 272 -268c0 -115 -74 -289 -301 -289c-241 0 -320 193 -320 372
c0 280 136 473 382 482c29 1 52 2 71 2c20 0 36 -1 53 -2c3 0 9 -7 9 -14zM269 207v-4c0 -94 45 -203 156 -203c115 0 137 120 137 218c0 55 -11 210 -137 210c-110 0 -156 -97 -156 -221zM870 -53c-51 0 -92 42 -92 93s41 92 92 92s92 -41 92 -92s-41 -93 -92 -93z" />
    <glyph glyph-name="Japan1.8068" unicode="&#x248e;" 
d="M264 -47h-3c-14 3 -31 4 -47 4c-15 0 -29 -1 -41 -2h-5c-7 0 -12 2 -12 8c0 4 3 10 8 18c160 237 323 516 409 666h-135c-65 0 -235 -3 -295 -14h-5c-7 0 -11 4 -11 10v2c3 19 4 40 4 62c0 18 -1 36 -3 53v2c0 10 7 15 15 15c65 0 223 -3 299 -3h255c11 0 16 -12 16 -18
v-27c0 -13 -2 -19 -10 -33c-143 -243 -320 -514 -429 -735c-2 -3 -3 -8 -10 -8zM962 39c0 -51 -41 -92 -92 -92s-92 41 -92 92s41 93 92 93s92 -42 92 -93z" />
    <glyph glyph-name="Japan1.8069" unicode="&#x248f;" 
d="M962 40c0 -51 -42 -93 -93 -93s-92 42 -92 93s41 92 92 92s93 -41 93 -92zM525 405c59 -15 206 -85 206 -217c0 -162 -139 -248 -320 -248s-320 75 -320 234c0 98 80 185 184 216c-60 23 -145 81 -145 193c0 131 139 212 286 212c159 0 276 -79 276 -207
c0 -107 -94 -165 -167 -183zM474 442c73 36 81 114 81 146c0 91 -50 150 -144 150c-88 0 -148 -56 -148 -129c0 -46 24 -102 211 -167zM341 362c-47 -7 -108 -66 -108 -174c0 -115 79 -182 177 -182c84 0 173 42 173 150c0 103 -160 174 -242 206z" />
    <glyph glyph-name="Japan1.8070" unicode="&#x2490;" 
d="M154 -36v15c0 22 -4 48 -9 67c-1 2 -1 4 -1 6c0 5 3 7 7 7s10 -3 18 -7c30 -17 90 -31 144 -31c219 0 243 226 248 304c-69 -58 -117 -78 -196 -78c-184 0 -269 125 -269 258c0 156 113 290 304 290c245 0 315 -201 315 -379c0 -286 -139 -433 -382 -469
c-16 -2 -39 -4 -65 -4c-37 0 -79 3 -107 9c-4 1 -7 6 -7 12zM392 319c123 0 158 112 158 187c0 11 0 22 -2 32c-15 86 -35 199 -146 199c-112 0 -146 -94 -146 -224c0 -104 46 -194 136 -194zM962 40c0 -51 -42 -92 -93 -92s-92 41 -92 92s41 92 92 92s93 -41 93 -92z" />
    <glyph glyph-name="Japan1.8071" unicode="&#x2474;" 
d="M580 -25h-3c-17 3 -37 5 -56 5c-22 0 -44 -2 -61 -5h-2c-7 0 -11 6 -11 13c2 65 6 147 6 240v424c-64 -44 -169 -114 -182 -114c-5 0 -7 6 -7 11v3c1 5 1 9 1 12c0 15 -4 24 -8 40c-1 4 -2 7 -2 9c0 7 4 10 9 12c82 38 149 86 223 145c4 3 8 7 17 7h7c15 0 39 5 63 12
c1 0 3 1 4 1c7 0 14 -7 14 -15c-2 -67 -5 -171 -5 -217v-331c0 -93 4 -169 6 -239c0 -6 -5 -13 -13 -13zM203 -66l-18 -11c-3 -1 -5 -2 -7 -2c-15 0 -157 183 -157 459s142 459 157 459c2 0 4 -1 7 -2l18 -11c4 -2 5 -5 5 -7c0 -4 -3 -8 -5 -12
c-84 -153 -112 -285 -112 -427s30 -280 112 -427c2 -4 5 -8 5 -12c0 -2 -1 -5 -5 -7zM815 -77l-18 11c-4 2 -5 5 -5 7c0 4 3 8 5 12c82 147 112 285 112 427s-28 274 -112 427c-2 4 -5 8 -5 12c0 2 1 5 5 7l18 11c3 1 5 2 7 2c15 0 157 -183 157 -459s-142 -459 -157 -459
c-2 0 -4 1 -7 2z" />
    <glyph glyph-name="Japan1.8072" unicode="&#x2475;" 
d="M719 -21h-473c-6 0 -10 18 -10 34c0 12 2 24 6 28c231 244 343 384 343 537c0 89 -48 151 -115 151c-125 0 -167 -146 -170 -158c-3 -9 -9 -15 -13 -15s-8 4 -8 12c-2 31 -8 54 -23 81c-1 4 -2 7 -2 10c0 14 79 140 233 140c149 0 243 -83 243 -235
c0 -92 -52 -171 -120 -244c-60 -65 -129 -125 -189 -186c-13 -13 -24 -26 -38 -38h146c54 0 151 5 202 17c3 1 5 1 7 1c6 0 7 -3 7 -8v-6c-4 -30 -13 -59 -13 -90c0 -4 1 -8 1 -12v-2c0 -10 -6 -17 -14 -17zM203 -66l-18 -11c-3 -1 -5 -2 -7 -2c-15 0 -157 183 -157 459
s142 459 157 459c2 0 4 -1 7 -2l18 -11c4 -2 5 -5 5 -7c0 -4 -3 -8 -5 -12c-84 -153 -112 -285 -112 -427s30 -280 112 -427c2 -4 5 -8 5 -12c0 -2 -1 -5 -5 -7zM815 -77l-18 11c-4 2 -5 5 -5 7c0 4 3 8 5 12c82 147 112 285 112 427s-28 274 -112 427c-2 4 -5 8 -5 12
c0 2 1 5 5 7l18 11c3 1 5 2 7 2c15 0 157 -183 157 -459s-142 -459 -157 -459c-2 0 -4 1 -7 2z" />
    <glyph glyph-name="Japan1.8073" unicode="&#x2476;" 
d="M403 369h-3c-7 0 -10 2 -10 9v3c1 5 1 13 1 20c0 13 -1 27 -2 36v3c0 7 4 10 14 10c19 -1 32 -2 44 -2c135 0 135 161 135 168c0 63 -41 116 -106 116c-112 0 -161 -111 -169 -129c-4 -9 -10 -13 -16 -13c-5 0 -10 4 -10 13c0 31 -2 52 -10 82c-1 3 -1 5 -1 7
c0 26 88 106 230 106c141 0 224 -69 224 -186c0 -97 -48 -155 -132 -186c98 -17 170 -102 170 -206c0 -106 -47 -258 -324 -258c-59 0 -144 26 -197 77c-2 2 -4 7 -4 13c0 2 0 5 1 7c9 35 10 50 10 87c0 9 5 14 11 14c5 0 12 -4 15 -14c20 -60 93 -116 163 -116
c177 0 180 175 180 195c0 81 -49 148 -156 148c-17 0 -32 0 -58 -4zM203 -66l-18 -11c-3 -1 -5 -2 -7 -2c-15 0 -157 183 -157 459s142 459 157 459c2 0 4 -1 7 -2l18 -11c4 -2 5 -5 5 -7c0 -4 -3 -8 -5 -12c-84 -153 -112 -285 -112 -427s30 -280 112 -427c2 -4 5 -8 5 -12
c0 -2 -1 -5 -5 -7zM815 -77l-18 11c-4 2 -5 5 -5 7c0 4 3 8 5 12c82 147 112 285 112 427s-28 274 -112 427c-2 4 -5 8 -5 12c0 2 1 5 5 7l18 11c3 1 5 2 7 2c15 0 157 -183 157 -459s-142 -459 -157 -459c-2 0 -4 1 -7 2z" />
    <glyph glyph-name="Japan1.8074" unicode="&#x2477;" 
d="M645 -25h-2c-19 3 -34 4 -49 4c-14 0 -27 -1 -42 -4h-4c-8 0 -11 6 -11 13l2 122h-172c-22 0 -125 -1 -160 -4c-5 0 -9 4 -9 10v2c1 7 2 13 2 18c0 6 -1 12 -2 17v5c0 8 4 15 10 21c106 164 218 373 342 588c5 9 11 11 16 11h7c21 0 41 7 60 12c3 1 6 1 9 1
c7 0 13 -3 13 -11l2 -558c8 0 47 1 100 6h3c7 0 12 -3 12 -11v-4c-2 -16 -4 -40 -4 -62c0 -11 1 -22 2 -31v-2c0 -7 -4 -11 -11 -11h-2c-57 3 -94 3 -102 3l2 -122c0 -7 -4 -13 -12 -13zM203 -66l-18 -11c-3 -1 -5 -2 -7 -2c-15 0 -157 183 -157 459s142 459 157 459
c2 0 4 -1 7 -2l18 -11c4 -2 5 -5 5 -7c0 -4 -3 -8 -5 -12c-84 -153 -112 -285 -112 -427s30 -280 112 -427c2 -4 5 -8 5 -12c0 -2 -1 -5 -5 -7zM815 -77l-18 11c-4 2 -5 5 -5 7c0 4 3 8 5 12c82 147 112 285 112 427s-28 274 -112 427c-2 4 -5 8 -5 12c0 2 1 5 5 7l18 11
c3 1 5 2 7 2c15 0 157 -183 157 -459s-142 -459 -157 -459c-2 0 -4 1 -7 2zM538 220v148c0 41 5 214 6 249c-52 -91 -169 -310 -227 -397h221z" />
    <glyph glyph-name="Japan1.8075" unicode="&#x2478;" 
d="M689 663h-304l-24 -198c48 16 106 24 140 24h2c138 0 257 -84 257 -255c0 -190 -146 -273 -314 -273c-59 0 -136 23 -193 66c-2 2 -5 8 -5 14c0 2 0 5 1 7c7 16 9 37 10 80c0 9 3 12 6 12c6 0 13 -6 17 -12c32 -45 90 -94 155 -94c172 0 176 184 176 212
c0 96 -47 170 -157 170c-53 0 -109 -20 -145 -46c-4 -3 -9 -4 -15 -4c-10 0 -21 5 -21 20v5c9 59 33 233 41 372c1 10 9 16 18 16h113c56 0 206 6 258 17h5c6 0 10 -3 10 -9v-4c-7 -34 -17 -67 -17 -102c0 -11 -5 -18 -14 -18zM203 -66l-18 -11c-3 -1 -5 -2 -7 -2
c-15 0 -157 183 -157 459s142 459 157 459c2 0 4 -1 7 -2l18 -11c4 -2 5 -5 5 -7c0 -4 -3 -8 -5 -12c-84 -153 -112 -285 -112 -427s30 -280 112 -427c2 -4 5 -8 5 -12c0 -2 -1 -5 -5 -7zM815 -77l-18 11c-4 2 -5 5 -5 7c0 4 3 8 5 12c82 147 112 285 112 427
s-28 274 -112 427c-2 4 -5 8 -5 12c0 2 1 5 5 7l18 11c3 1 5 2 7 2c15 0 157 -183 157 -459s-142 -459 -157 -459c-2 0 -4 1 -7 2z" />
    <glyph glyph-name="Japan1.8076" unicode="&#x2479;" 
d="M680 783v-2c-1 -6 -1 -12 -1 -18c0 -20 3 -41 7 -55c1 -3 1 -5 1 -7c0 -6 -3 -10 -8 -10c-4 0 -9 2 -14 6c-23 17 -69 40 -117 40c-141 0 -184 -222 -185 -310c56 56 97 81 172 81c180 0 237 -149 237 -262c0 -114 -65 -284 -264 -284c-210 0 -280 189 -280 364
c0 273 120 464 335 472c26 1 45 2 62 2s31 -1 46 -2c4 0 9 -7 9 -15zM371 224v-4c0 -117 52 -198 135 -198c100 0 118 121 118 219c0 55 -14 201 -117 201c-95 0 -136 -96 -136 -218zM203 -66l-18 -11c-3 -1 -5 -2 -7 -2c-15 0 -157 183 -157 459s142 459 157 459
c2 0 4 -1 7 -2l18 -11c4 -2 5 -5 5 -7c0 -4 -3 -8 -5 -12c-84 -153 -112 -285 -112 -427s30 -280 112 -427c2 -4 5 -8 5 -12c0 -2 -1 -5 -5 -7zM815 -77l-18 11c-4 2 -5 5 -5 7c0 4 3 8 5 12c82 147 112 285 112 427s-28 274 -112 427c-2 4 -5 8 -5 12c0 2 1 5 5 7l18 11
c3 1 5 2 7 2c15 0 157 -183 157 -459s-142 -459 -157 -459c-2 0 -4 1 -7 2z" />
    <glyph glyph-name="Japan1.8077" unicode="&#x247a;" 
d="M406 -50h-3c-13 3 -29 4 -44 4c-12 0 -23 -1 -33 -2h-4c-8 0 -12 3 -12 9c0 4 2 10 7 18c139 230 270 501 345 648h-115c-56 0 -205 -3 -257 -14h-5c-6 0 -10 3 -10 11v2c2 19 4 40 4 62c0 17 -1 35 -3 51v2c0 10 7 16 14 16c56 0 194 -3 260 -3h223c11 0 15 -13 15 -19
v-19c0 -25 -5 -35 -8 -41c-125 -238 -269 -501 -364 -717c-2 -3 -3 -8 -10 -8zM203 -66l-18 -11c-3 -1 -5 -2 -7 -2c-15 0 -157 183 -157 459s142 459 157 459c2 0 4 -1 7 -2l18 -11c4 -2 5 -5 5 -7c0 -4 -3 -8 -5 -12c-84 -153 -112 -285 -112 -427s30 -280 112 -427
c2 -4 5 -8 5 -12c0 -2 -1 -5 -5 -7zM815 -77l-18 11c-4 2 -5 5 -5 7c0 4 3 8 5 12c82 147 112 285 112 427s-28 274 -112 427c-2 4 -5 8 -5 12c0 2 1 5 5 7l18 11c3 1 5 2 7 2c15 0 157 -183 157 -459s-142 -459 -157 -459c-2 0 -4 1 -7 2z" />
    <glyph glyph-name="Japan1.8078" unicode="&#x247b;" 
d="M605 417c88 -28 175 -113 175 -211c0 -160 -121 -244 -280 -244c-158 0 -280 74 -280 230c0 96 69 180 158 211c-53 24 -124 80 -124 188c0 129 122 208 251 208c139 0 241 -77 241 -203c0 -122 -101 -167 -141 -179zM554 455c69 40 70 124 70 142c0 88 -43 145 -124 145
c-76 0 -128 -56 -128 -125c0 -66 60 -108 131 -141c19 -9 37 -15 51 -21zM439 373c-40 -7 -93 -63 -93 -168c0 -112 68 -181 153 -181c72 0 149 46 149 150c0 99 -137 168 -209 199zM815 -77l-18 11c-4 2 -5 5 -5 7c0 4 3 8 5 12c82 147 112 285 112 427s-28 274 -112 427
c-2 4 -5 8 -5 12c0 2 1 5 5 7l18 11c3 1 5 2 7 2c15 0 157 -183 157 -459s-142 -459 -157 -459c-2 0 -4 1 -7 2zM203 -66l-18 -11c-3 -1 -5 -2 -7 -2c-15 0 -157 183 -157 459s142 459 157 459c2 0 4 -1 7 -2l18 -11c4 -2 5 -5 5 -7c0 -4 -3 -8 -5 -12
c-84 -153 -112 -285 -112 -427s30 -280 112 -427c2 -4 5 -8 5 -12c0 -2 -1 -5 -5 -7z" />
    <glyph glyph-name="Japan1.8079" unicode="&#x247c;" 
d="M287 -19v16c0 21 -4 46 -8 65c-1 3 -1 5 -1 7c0 5 2 7 7 7c4 0 10 -2 17 -7c26 -16 77 -30 124 -30c95 0 202 63 215 292c-59 -55 -100 -74 -169 -74c-162 0 -236 122 -236 253c0 153 99 285 266 285c215 0 277 -198 277 -372c0 -417 -282 -463 -391 -463
c-33 0 -70 3 -94 9c-5 1 -7 6 -7 12zM496 329c112 0 136 118 136 182c0 11 -1 21 -2 31c-13 84 -30 199 -126 199c-107 0 -126 -122 -126 -223s41 -189 118 -189zM203 -66l-18 -11c-3 -1 -5 -2 -7 -2c-15 0 -157 183 -157 459s142 459 157 459c2 0 4 -1 7 -2l18 -11
c4 -2 5 -5 5 -7c0 -4 -3 -8 -5 -12c-84 -153 -112 -285 -112 -427s30 -280 112 -427c2 -4 5 -8 5 -12c0 -2 -1 -5 -5 -7zM815 -77l-18 11c-4 2 -5 5 -5 7c0 4 3 8 5 12c82 147 112 285 112 427s-28 274 -112 427c-2 4 -5 8 -5 12c0 2 1 5 5 7l18 11c3 1 5 2 7 2
c15 0 157 -183 157 -459s-142 -459 -157 -459c-2 0 -4 1 -7 2z" />
    <glyph glyph-name="Japan1.8080" unicode="&#x247d;" 
d="M627 -34c-135 0 -179 151 -179 405c0 255 48 422 180 422c136 0 180 -168 180 -423c0 -254 -43 -404 -181 -404zM628 22c71 0 73 149 73 348c0 185 0 367 -73 367c-72 0 -74 -181 -74 -366c0 -198 2 -349 74 -349zM379 -9v-3c0 -6 -2 -8 -6 -8c-2 0 -4 1 -6 1
c-8 2 -25 3 -42 3c-15 0 -31 -1 -43 -4h-3c-4 0 -6 1 -6 11c1 64 6 146 6 238v429c-59 -57 -103 -88 -109 -88c-3 0 -5 7 -5 13s1 11 1 15c0 14 -3 17 -6 30c-1 6 -3 9 -3 12s2 5 7 8c60 38 92 70 135 124c3 3 7 6 14 6h4c13 0 30 4 44 9c3 1 7 2 9 2c6 0 10 -3 10 -9v-2
c-2 -43 -5 -144 -5 -215v-335c0 -51 0 -167 4 -237zM203 -66l-18 -11c-3 -1 -5 -2 -7 -2c-15 0 -157 183 -157 459s142 459 157 459c2 0 4 -1 7 -2l18 -11c4 -2 5 -5 5 -7c0 -4 -3 -8 -5 -12c-84 -153 -112 -285 -112 -427s30 -280 112 -427c2 -4 5 -8 5 -12
c0 -2 -1 -5 -5 -7zM815 -77l-18 11c-4 2 -5 5 -5 7c0 4 3 8 5 12c82 147 112 285 112 427s-28 274 -112 427c-2 4 -5 8 -5 12c0 2 1 5 5 7l18 11c3 1 5 2 7 2c15 0 157 -183 157 -459s-142 -459 -157 -459c-2 0 -4 1 -7 2z" />
    <glyph glyph-name="Japan1.8081" unicode="&#x247e;" 
d="M736 -20h-2c-12 3 -28 5 -44 5c-18 0 -37 -2 -49 -5h-1c-5 0 -8 5 -8 11c1 64 6 146 6 238v431c-79 -76 -131 -110 -134 -110s-5 5 -5 11v2c1 5 1 9 1 12c0 15 -5 21 -7 34c-1 4 -1 7 -1 10c0 5 2 8 5 10c60 38 107 85 161 144c3 3 6 6 12 6h6c13 0 37 4 54 11
c1 0 2 1 3 1c5 0 11 -5 11 -12c-1 -67 -5 -169 -5 -215v-336c0 -92 4 -167 5 -237c0 -5 -2 -11 -8 -11zM408 -20h-2c-12 3 -28 5 -44 5c-19 0 -38 -2 -50 -5h-1c-4 0 -7 5 -7 11c1 64 6 146 6 238v431c-79 -76 -131 -110 -134 -110s-5 5 -5 11v2c1 5 1 9 1 12
c0 15 -5 21 -7 34c-1 4 -1 7 -1 10c0 5 2 8 5 10c60 38 107 85 161 144c3 3 6 6 12 6h6c13 0 37 4 54 11c1 0 2 1 3 1c4 0 10 -5 10 -12c-1 -67 -5 -169 -5 -215v-336c0 -92 5 -167 6 -237c0 -5 -2 -11 -8 -11zM203 -66l-18 -11c-3 -1 -5 -2 -7 -2c-15 0 -157 183 -157 459
s142 459 157 459c2 0 4 -1 7 -2l18 -11c4 -2 5 -5 5 -7c0 -4 -3 -8 -5 -12c-84 -153 -112 -285 -112 -427s30 -280 112 -427c2 -4 5 -8 5 -12c0 -2 -1 -5 -5 -7zM815 -77l-18 11c-4 2 -5 5 -5 7c0 4 3 8 5 12c82 147 112 285 112 427s-28 274 -112 427c-2 4 -5 8 -5 12
c0 2 1 5 5 7l18 11c3 1 5 2 7 2c15 0 157 -183 157 -459s-142 -459 -157 -459c-2 0 -4 1 -7 2z" />
    <glyph glyph-name="Japan1.8082" unicode="&#x247f;" 
d="M771 -18h-311c-5 0 -7 16 -7 32c0 11 1 22 4 26c127 195 222 346 222 538c0 87 -28 149 -72 149c-47 0 -87 -67 -105 -160c-2 -9 -8 -13 -13 -13c-4 0 -9 3 -9 10c-2 47 -18 65 -24 80c-1 4 -2 6 -2 9c0 24 66 138 165 138c106 0 166 -83 166 -232
c0 -188 -132 -312 -219 -450c-3 -5 -11 -16 -11 -16h95c37 0 96 7 131 17c1 0 2 1 3 1c4 0 6 -4 6 -9v-3c-4 -29 -11 -58 -11 -89v-15c0 -8 -3 -13 -8 -13zM379 -9v-3c0 -6 -2 -8 -6 -8c-2 0 -4 1 -6 1c-8 2 -25 3 -42 3c-15 0 -31 -1 -43 -4h-3c-4 0 -6 1 -6 11
c1 64 6 146 6 238v429c-59 -57 -103 -88 -109 -88c-3 0 -5 7 -5 13s1 11 1 15c0 14 -3 17 -6 30c-1 6 -3 9 -3 12s2 5 7 8c60 38 92 70 135 124c3 3 7 6 14 6h4c13 0 30 4 44 9c3 1 7 2 9 2c6 0 10 -3 10 -9v-2c-2 -43 -5 -144 -5 -215v-335c0 -51 0 -167 4 -237zM203 -66
l-18 -11c-3 -1 -5 -2 -7 -2c-15 0 -157 183 -157 459s142 459 157 459c2 0 4 -1 7 -2l18 -11c4 -2 5 -5 5 -7c0 -4 -3 -8 -5 -12c-84 -153 -112 -285 -112 -427s30 -280 112 -427c2 -4 5 -8 5 -12c0 -2 -1 -5 -5 -7zM815 -77l-18 11c-4 2 -5 5 -5 7c0 4 3 8 5 12
c82 147 112 285 112 427s-28 274 -112 427c-2 4 -5 8 -5 12c0 2 1 5 5 7l18 11c3 1 5 2 7 2c15 0 157 -183 157 -459s-142 -459 -157 -459c-2 0 -4 1 -7 2z" />
    <glyph glyph-name="Japan1.8083" unicode="&#x2480;" 
d="M444 55v6c4 25 11 28 11 86c0 8 5 12 9 12c5 0 10 -4 12 -13c14 -60 58 -114 106 -114c45 0 115 24 115 195c0 80 -27 149 -99 149c-12 0 -26 0 -44 -4h-3c-3 0 -5 2 -5 7v3c1 9 2 19 2 29c0 9 -1 17 -2 24v3c0 6 3 8 9 8c13 -1 25 -2 33 -2c66 0 81 67 88 145
c1 8 1 15 1 22c0 64 -23 119 -72 119c-27 0 -73 -17 -106 -124c-2 -8 -8 -12 -13 -12s-10 4 -10 11c0 42 -9 52 -13 77v2c0 23 64 109 161 109c91 0 153 -70 153 -186c0 -54 -14 -151 -97 -189c75 -17 124 -92 124 -195c0 -115 -41 -256 -218 -256c-62 0 -142 59 -142 88z
M379 -9v-3c0 -6 -2 -8 -6 -8c-2 0 -4 1 -6 1c-8 2 -25 3 -42 3c-15 0 -31 -1 -43 -4h-3c-4 0 -6 1 -6 11c1 64 6 146 6 238v429c-59 -57 -103 -88 -109 -88c-3 0 -5 7 -5 13s1 11 1 15c0 14 -3 17 -6 30c-1 6 -3 9 -3 12s2 5 7 8c60 38 92 70 135 124c3 3 7 6 14 6h4
c13 0 30 4 44 9c3 1 7 2 9 2c6 0 10 -3 10 -9v-2c-2 -43 -5 -144 -5 -215v-335c0 -51 0 -167 4 -237zM203 -66l-18 -11c-3 -1 -5 -2 -7 -2c-15 0 -157 183 -157 459s142 459 157 459c2 0 4 -1 7 -2l18 -11c4 -2 5 -5 5 -7c0 -4 -3 -8 -5 -12c-84 -153 -112 -285 -112 -427
s30 -280 112 -427c2 -4 5 -8 5 -12c0 -2 -1 -5 -5 -7zM815 -77l-18 11c-4 2 -5 5 -5 7c0 4 3 8 5 12c82 147 112 285 112 427s-28 274 -112 427c-2 4 -5 8 -5 12c0 2 1 5 5 7l18 11c3 1 5 2 7 2c15 0 157 -183 157 -459s-142 -459 -157 -459c-2 0 -4 1 -7 2z" />
    <glyph glyph-name="Japan1.8084" unicode="&#x2481;" 
d="M741 -21h-1c-13 3 -29 4 -44 4c-14 0 -28 -1 -38 -4h-2c-5 0 -7 5 -7 11l2 123h-119c-15 0 -83 -1 -106 -4c-2 0 -5 3 -5 8v2c1 5 1 11 1 16c0 7 0 14 -1 20v3c0 11 5 19 6 21c64 160 137 372 214 589c3 8 7 10 10 10h6c20 0 63 7 76 12c2 1 4 1 5 1c5 0 8 -3 8 -10v-570
h5c11 0 35 1 64 5h1c4 0 7 -3 7 -10v-2c-1 -17 -3 -35 -3 -53c0 -10 0 -20 2 -30v-2c0 -7 -3 -9 -7 -9c-29 3 -50 3 -61 3h-9l3 -123c0 -6 -2 -11 -7 -11zM379 -9v-3c0 -6 -2 -8 -6 -8c-2 0 -4 1 -6 1c-8 2 -25 3 -42 3c-15 0 -31 -1 -43 -4h-3c-4 0 -6 1 -6 11
c1 64 6 146 6 238v429c-59 -57 -103 -88 -109 -88c-3 0 -5 7 -5 13s1 11 1 15c0 14 -3 17 -6 30c-1 6 -3 9 -3 12s2 5 7 8c60 38 92 70 135 124c3 3 7 6 14 6h4c13 0 30 4 44 9c3 1 7 2 9 2c6 0 10 -3 10 -9v-2c-2 -43 -5 -144 -5 -215v-335c0 -51 0 -167 4 -237zM203 -66
l-18 -11c-3 -1 -5 -2 -7 -2c-15 0 -157 183 -157 459s142 459 157 459c2 0 4 -1 7 -2l18 -11c4 -2 5 -5 5 -7c0 -4 -3 -8 -5 -12c-84 -153 -112 -285 -112 -427s30 -280 112 -427c2 -4 5 -8 5 -12c0 -2 -1 -5 -5 -7zM815 -77l-18 11c-4 2 -5 5 -5 7c0 4 3 8 5 12
c82 147 112 285 112 427s-28 274 -112 427c-2 4 -5 8 -5 12c0 2 1 5 5 7l18 11c3 1 5 2 7 2c15 0 157 -183 157 -459s-142 -459 -157 -459c-2 0 -4 1 -7 2zM652 209v158c0 45 7 284 7 284c-30 -93 -115 -355 -150 -442h143z" />
    <glyph glyph-name="Japan1.8085" unicode="&#x2482;" 
d="M755 669h-200l-20 -209c28 17 64 26 87 26c104 0 181 -81 181 -248c0 -188 -102 -272 -220 -272c-63 0 -143 51 -143 76c0 2 0 5 1 7c5 16 7 37 7 80c0 7 3 10 6 10c4 0 9 -4 13 -11c21 -46 71 -94 116 -94c86 0 110 105 110 227c0 90 -20 160 -90 160
c-35 0 -68 -13 -105 -46c-2 -2 -5 -2 -9 -2c-10 0 -24 5 -24 16v2c6 58 24 231 31 369c0 9 5 14 11 14h85c37 0 143 6 178 16c1 0 2 1 3 1c4 0 6 -3 6 -8v-4c-11 -44 -15 -58 -15 -93c0 -10 -4 -17 -9 -17zM379 -9v-3c0 -6 -2 -8 -6 -8c-2 0 -4 1 -6 1c-8 2 -25 3 -42 3
c-15 0 -31 -1 -43 -4h-3c-4 0 -6 1 -6 11c1 64 6 146 6 238v429c-59 -57 -103 -88 -109 -88c-3 0 -5 7 -5 13s1 11 1 15c0 14 -3 17 -6 30c-1 6 -3 9 -3 12s2 5 7 8c60 38 92 70 135 124c3 3 7 6 14 6h4c13 0 30 4 44 9c3 1 7 2 9 2c6 0 10 -3 10 -9v-2
c-2 -43 -5 -144 -5 -215v-335c0 -51 0 -167 4 -237zM203 -66l-18 -11c-3 -1 -5 -2 -7 -2c-15 0 -157 183 -157 459s142 459 157 459c2 0 4 -1 7 -2l18 -11c4 -2 5 -5 5 -7c0 -4 -3 -8 -5 -12c-84 -153 -112 -285 -112 -427s30 -280 112 -427c2 -4 5 -8 5 -12
c0 -2 -1 -5 -5 -7zM815 -77l-18 11c-4 2 -5 5 -5 7c0 4 3 8 5 12c82 147 112 285 112 427s-28 274 -112 427c-2 4 -5 8 -5 12c0 2 1 5 5 7l18 11c3 1 5 2 7 2c15 0 157 -183 157 -459s-142 -459 -157 -459c-2 0 -4 1 -7 2z" />
    <glyph glyph-name="Japan1.8086" unicode="&#x2483;" 
d="M754 703v-4c0 -7 -2 -11 -6 -11c-3 0 -6 1 -9 5c-14 17 -39 43 -72 43c-96 0 -118 -235 -121 -311c34 71 75 80 105 80c100 0 155 -104 155 -262c0 -33 -2 -275 -172 -275c-140 0 -184 186 -184 359c0 270 72 455 218 464c16 1 30 2 42 2c13 0 24 -1 33 -2
c2 0 5 -6 5 -12v-15c0 -22 3 -47 6 -61zM379 -9v-3c0 -6 -2 -8 -6 -8c-2 0 -4 1 -6 1c-8 2 -25 3 -42 3c-15 0 -31 -1 -43 -4h-3c-4 0 -6 1 -6 11c1 64 6 146 6 238v429c-59 -57 -103 -88 -109 -88c-3 0 -5 7 -5 13s1 11 1 15c0 14 -3 17 -6 30c-1 6 -3 9 -3 12s2 5 7 8
c60 38 92 70 135 124c3 3 7 6 14 6h4c13 0 30 4 44 9c3 1 7 2 9 2c6 0 10 -3 10 -9v-2c-2 -43 -5 -144 -5 -215v-335c0 -51 0 -167 4 -237zM203 -66l-18 -11c-3 -1 -5 -2 -7 -2c-15 0 -157 183 -157 459s142 459 157 459c2 0 4 -1 7 -2l18 -11c4 -2 5 -5 5 -7
c0 -4 -3 -8 -5 -12c-84 -153 -112 -285 -112 -427s30 -280 112 -427c2 -4 5 -8 5 -12c0 -2 -1 -5 -5 -7zM815 -77l-18 11c-4 2 -5 5 -5 7c0 4 3 8 5 12c82 147 112 285 112 427s-28 274 -112 427c-2 4 -5 8 -5 12c0 2 1 5 5 7l18 11c3 1 5 2 7 2c15 0 157 -183 157 -459
s-142 -459 -157 -459c-2 0 -4 1 -7 2zM635 21c63 0 70 126 70 222c0 133 -25 199 -68 199c-61 0 -85 -99 -85 -221c0 -85 20 -200 83 -200z" />
    <glyph glyph-name="Japan1.8087" unicode="&#x2484;" 
d="M563 -35h-2c-8 3 -26 4 -42 4c-13 0 -24 -1 -31 -2h-3c-4 0 -7 2 -7 7c0 3 2 9 5 17c92 229 195 508 244 653h-78c-37 0 -133 -3 -169 -12c-1 0 -2 -1 -3 -1c-4 0 -6 4 -6 9v3c2 16 3 31 3 47c0 18 -1 35 -3 55v3c0 8 4 14 9 14c37 0 127 -3 171 -3h158
c6 0 10 -12 10 -18v-23c0 -14 0 -20 -5 -35c-82 -235 -182 -497 -245 -711c-1 -3 -2 -7 -6 -7zM379 -22v-3c0 -7 -3 -9 -7 -9c-1 0 -3 1 -5 1c-9 2 -28 3 -47 3c-13 0 -27 0 -38 -3h-3c-4 0 -6 1 -6 11c1 64 6 145 6 237v429c-77 -75 -108 -87 -109 -87c-3 0 -5 7 -5 13
s1 11 1 15c0 14 -3 16 -6 29c-1 6 -3 10 -3 12c0 4 2 6 7 9c60 38 92 69 135 123c3 3 7 6 14 6h3c14 0 31 5 45 10c3 1 6 2 9 2c6 0 10 -4 10 -10v-2c-2 -43 -5 -144 -5 -215v-335c0 -51 0 -166 4 -236zM203 -66l-18 -11c-3 -1 -5 -2 -7 -2c-15 0 -157 183 -157 459
s142 459 157 459c2 0 4 -1 7 -2l18 -11c4 -2 5 -5 5 -7c0 -4 -3 -8 -5 -12c-84 -153 -112 -285 -112 -427s30 -280 112 -427c2 -4 5 -8 5 -12c0 -2 -1 -5 -5 -7zM815 -77l-18 11c-4 2 -5 5 -5 7c0 4 3 8 5 12c82 147 112 285 112 427s-28 274 -112 427c-2 4 -5 8 -5 12
c0 2 1 5 5 7l18 11c3 1 5 2 7 2c15 0 157 -183 157 -459s-142 -459 -157 -459c-2 0 -4 1 -7 2z" />
    <glyph glyph-name="Japan1.8088" unicode="&#x2485;" 
d="M546 401c-35 25 -85 86 -85 186c0 135 81 205 166 205c92 0 164 -75 164 -199c0 -19 -1 -130 -97 -173c44 -23 120 -91 120 -214c0 -158 -85 -241 -190 -241c-104 0 -186 72 -186 226c0 102 48 174 108 210zM379 -9v-3c0 -6 -2 -8 -6 -8c-2 0 -4 1 -6 1c-8 2 -25 3 -42 3
c-15 0 -31 -1 -43 -4h-3c-4 0 -6 1 -6 11c1 64 6 146 6 238v429c-59 -57 -103 -88 -109 -88c-3 0 -5 7 -5 13s1 11 1 15c0 14 -3 17 -6 30c-1 6 -3 9 -3 12s2 5 7 8c60 38 92 70 135 124c3 3 7 6 14 6h4c13 0 30 4 44 9c3 1 7 2 9 2c6 0 10 -3 10 -9v-2
c-2 -43 -5 -144 -5 -215v-335c0 -51 0 -167 4 -237zM203 -66l-18 -11c-3 -1 -5 -2 -7 -2c-15 0 -157 183 -157 459s142 459 157 459c2 0 4 -1 7 -2l18 -11c4 -2 5 -5 5 -7c0 -4 -3 -8 -5 -12c-84 -153 -112 -285 -112 -427s30 -280 112 -427c2 -4 5 -8 5 -12
c0 -2 -1 -5 -5 -7zM815 -77l-18 11c-4 2 -5 5 -5 7c0 4 3 8 5 12c82 147 112 285 112 427s-28 274 -112 427c-2 4 -5 8 -5 12c0 2 1 5 5 7l18 11c3 1 5 2 7 2c15 0 157 -183 157 -459s-142 -459 -157 -459c-2 0 -4 1 -7 2zM593 371c-27 -12 -64 -62 -64 -166
c0 -112 40 -178 97 -178c48 0 95 43 95 147c0 99 -81 166 -128 197zM652 448c18 14 54 60 54 145c0 88 -27 144 -82 144c-43 0 -78 -52 -78 -124c0 -80 46 -127 106 -165z" />
    <glyph glyph-name="Japan1.8089" unicode="&#x2486;" 
d="M486 -7v6c0 23 -4 46 -7 65v5c0 6 2 10 6 10c2 0 5 -2 9 -5c17 -17 53 -33 85 -33c95 0 135 145 137 298c-32 -58 -64 -74 -110 -74c-106 0 -160 119 -160 248c0 151 60 281 181 281c148 0 187 -195 187 -367c0 -277 -71 -416 -219 -453c-9 -2 -23 -4 -39 -4
c-24 0 -50 3 -66 9c-3 1 -4 6 -4 14zM379 -9v-3c0 -6 -2 -8 -6 -8c-2 0 -4 1 -6 1c-8 2 -25 3 -42 3c-15 0 -31 -1 -43 -4h-3c-4 0 -6 1 -6 11c1 64 6 146 6 238v429c-59 -57 -103 -88 -109 -88c-3 0 -5 7 -5 13s1 11 1 15c0 14 -3 17 -6 30c-1 6 -3 9 -3 12s2 5 7 8
c60 38 92 70 135 124c3 3 7 6 14 6h4c13 0 30 4 44 9c3 1 7 2 9 2c6 0 10 -3 10 -9v-2c-2 -43 -5 -144 -5 -215v-335c0 -51 0 -167 4 -237zM203 -66l-18 -11c-3 -1 -5 -2 -7 -2c-15 0 -157 183 -157 459s142 459 157 459c2 0 4 -1 7 -2l18 -11c4 -2 5 -5 5 -7
c0 -4 -3 -8 -5 -12c-84 -153 -112 -285 -112 -427s30 -280 112 -427c2 -4 5 -8 5 -12c0 -2 -1 -5 -5 -7zM815 -77l-18 11c-4 2 -5 5 -5 7c0 4 3 8 5 12c82 147 112 285 112 427s-28 274 -112 427c-2 4 -5 8 -5 12c0 2 1 5 5 7l18 11c3 1 5 2 7 2c15 0 157 -183 157 -459
s-142 -459 -157 -459c-2 0 -4 1 -7 2zM622 329c64 0 89 103 89 184c0 11 0 22 -1 32c-8 83 -18 198 -82 198c-72 0 -83 -122 -83 -221c0 -100 25 -193 77 -193z" />
    <glyph glyph-name="Japan1.8090" unicode="&#x2487;" 
d="M668 -34c-115 0 -154 151 -154 405c0 255 42 422 155 422c116 0 154 -168 154 -423c0 -254 -37 -404 -155 -404zM457 -15h-251c-7 0 -11 23 -11 43c0 10 1 19 3 23c108 192 170 382 170 560c0 72 -12 120 -46 120c-50 0 -73 -104 -81 -161c-1 -9 -5 -13 -9 -13
s-7 3 -7 10c-2 47 -25 60 -29 75c-1 3 -1 6 -1 9c0 16 49 143 140 143c97 0 134 -83 134 -232c0 -188 -115 -321 -189 -459c-3 -5 -9 -16 -9 -16h83c31 0 80 7 110 17c1 0 2 1 3 1c4 0 7 -3 7 -9v-2c-2 -30 -9 -52 -9 -82v-10c0 -10 -3 -17 -8 -17zM669 21
c60 0 60 145 60 349c0 251 -8 367 -60 367c-55 0 -61 -126 -61 -384c0 -189 1 -332 61 -332zM203 -66l-18 -11c-3 -1 -5 -2 -7 -2c-15 0 -157 183 -157 459s142 459 157 459c2 0 4 -1 7 -2l18 -11c4 -2 5 -5 5 -7c0 -4 -3 -8 -5 -12c-84 -153 -112 -285 -112 -427
s30 -280 112 -427c2 -4 5 -8 5 -12c0 -2 -1 -5 -5 -7zM815 -77l-18 11c-4 2 -5 5 -5 7c0 4 3 8 5 12c82 147 112 285 112 427s-28 274 -112 427c-2 4 -5 8 -5 12c0 2 1 5 5 7l18 11c3 1 5 2 7 2c15 0 157 -183 157 -459s-142 -459 -157 -459c-2 0 -4 1 -7 2z" />
    <glyph glyph-name="Japan1.8091" unicode="&#x3251;" 
d="M979 380c0 -264 -215 -479 -479 -479s-479 215 -479 479s215 479 479 479s479 -215 479 -479zM924 380c0 234 -190 424 -424 424s-424 -190 -424 -424s190 -424 424 -424s424 190 424 424zM495 86h-284c-7 0 -13 23 -13 38c0 5 0 9 2 11c130 152 210 250 210 395
c0 57 -20 94 -62 94c-48 0 -87 -72 -99 -127c-2 -9 -8 -14 -13 -14s-9 3 -9 13c-2 29 -13 44 -23 66c-1 5 -2 8 -2 11c0 20 67 105 157 105c95 0 157 -61 157 -171c0 -69 -32 -127 -74 -179c-29 -36 -64 -70 -96 -104l-44 -49h83c34 0 85 9 117 16c2 1 4 1 5 1
c6 0 8 -4 8 -10v-4c-3 -21 -8 -45 -8 -67v-12c0 -10 -4 -13 -12 -13zM768 85h-3c-12 2 -27 3 -41 3c-15 0 -30 -1 -42 -3h-3c-8 0 -10 6 -10 12c1 47 6 104 6 171v298c-85 -58 -102 -64 -108 -64c-5 0 -7 3 -7 9v5c0 3 1 6 1 8c0 9 -3 13 -6 24c-1 4 -2 7 -2 10c0 4 2 6 8 9
c58 27 82 50 135 92c3 2 6 5 13 5h7c12 0 30 3 46 8c2 1 4 1 6 1c7 0 11 -5 11 -13c-1 -48 -5 -122 -5 -155v-237c0 -67 4 -121 5 -171c0 -5 -2 -12 -11 -12z" />
    <glyph glyph-name="Japan1.8092" unicode="&#x2170;" 
d="M563 -46h-4c-14 3 -34 4 -55 4c-22 0 -45 -1 -61 -4h-2c-6 0 -12 5 -12 10c2 59 5 130 5 214v140c0 83 -3 140 -5 206c0 5 6 10 12 10h2c5 -1 10 -1 16 -1c32 0 75 10 100 15h4c7 0 9 -4 9 -9c-2 -59 -5 -139 -5 -222v-138c0 -84 3 -154 5 -215c0 -5 -2 -10 -9 -10z
M499 638c-46 0 -85 41 -85 89c0 46 39 86 85 86s87 -40 87 -86c0 -48 -41 -89 -87 -89z" />
    <glyph glyph-name="Japan1.8093" unicode="&#x2171;" 
d="M713 -46h-4c-14 3 -34 4 -53 4c-22 0 -44 -1 -60 -4h-2c-6 0 -12 5 -12 10c2 59 6 130 6 214v140c0 83 -4 140 -6 206c0 5 6 10 12 10h2c5 -1 10 -1 16 -1c31 0 72 10 97 15h4c7 0 9 -4 9 -9c-2 -59 -5 -139 -5 -222v-138c0 -84 3 -154 5 -215c0 -5 -2 -10 -9 -10z
M410 -46h-4c-14 3 -34 4 -53 4c-22 0 -44 -1 -60 -4h-2c-6 0 -12 5 -12 10c2 59 6 130 6 214v140c0 83 -4 140 -6 206c0 5 6 10 12 10h2c5 -1 10 -1 16 -1c31 0 72 10 97 15h4c7 0 9 -4 9 -9c-2 -59 -5 -139 -5 -222v-138c0 -84 3 -154 5 -215c0 -5 -2 -10 -9 -10zM650 639
c-45 0 -83 41 -83 88c0 45 38 85 83 85s86 -40 86 -85c0 -47 -41 -88 -86 -88zM347 639c-45 0 -83 41 -83 88c0 45 38 85 83 85s86 -40 86 -85c0 -47 -41 -88 -86 -88z" />
    <glyph glyph-name="Japan1.8094" unicode="&#x2172;" 
d="M803 -46h-4c-14 3 -33 4 -52 4c-21 0 -43 -1 -59 -4h-2c-6 0 -12 5 -12 10c2 59 5 130 5 214v140c0 83 -3 140 -5 206c0 5 6 10 12 10h2c5 -1 10 -1 16 -1c30 0 70 10 95 15h4c7 0 9 -4 9 -9c-2 -59 -5 -140 -5 -223v-137c0 -84 3 -154 5 -215c0 -5 -2 -10 -9 -10z
M318 -46h-4c-14 3 -33 4 -52 4c-21 0 -43 -1 -59 -4h-2c-6 0 -12 5 -12 10c2 59 5 130 5 214v140c0 83 -3 140 -5 206c0 5 6 10 12 10h2c5 -1 10 -1 16 -1c30 0 70 10 95 15h4c7 0 9 -4 9 -9c-2 -59 -5 -140 -5 -223v-137c0 -84 3 -154 5 -215c0 -5 -2 -10 -9 -10zM560 -46
h-4c-14 3 -33 4 -53 4c-21 0 -43 -1 -59 -4h-2c-6 0 -12 5 -12 10c2 59 6 130 6 214v140c0 83 -4 140 -6 206c0 5 6 10 12 10h2c5 -1 10 -1 16 -1c30 0 71 10 96 15h4c7 0 9 -4 9 -9c-2 -59 -6 -140 -6 -223v-137c0 -84 4 -154 6 -215c0 -5 -2 -10 -9 -10zM742 642
c-44 0 -82 39 -82 85c0 44 38 83 82 83s83 -39 83 -83c0 -46 -39 -85 -83 -85zM256 642c-44 0 -81 39 -81 85c0 44 37 83 81 83s84 -39 84 -83c0 -46 -40 -85 -84 -85zM498 642c-44 0 -81 39 -81 85c0 44 37 83 81 83s83 -39 83 -83c0 -46 -39 -85 -83 -85z" />
    <glyph glyph-name="Japan1.8095" unicode="&#x2173;" 
d="M680 -44h-3c-6 1 -16 2 -26 2c-11 0 -23 -1 -29 -2h-1c-6 0 -9 6 -12 12c-76 189 -147 375 -223 547c-1 3 -2 5 -2 7c0 6 5 9 11 9h2c3 0 6 -1 10 -1c28 0 77 10 106 15h2c5 0 7 -3 8 -6c37 -115 112 -321 152 -424c21 50 79 228 80 230c11 29 39 131 53 179
c2 4 7 7 11 7h2c5 -1 10 -1 15 -1c18 0 37 5 54 7h4c6 0 9 -3 9 -8c0 -2 -1 -5 -2 -8c-25 -57 -67 -171 -78 -201c0 0 -86 -242 -131 -351c-3 -5 -4 -13 -12 -13zM331 -46h-4c-14 3 -33 4 -53 4c-21 0 -43 -1 -59 -4h-2c-6 0 -12 5 -12 10c2 59 6 130 6 214v140
c0 83 -4 140 -6 206c0 5 6 10 12 10h2c5 -1 10 -1 16 -1c30 0 71 10 96 15h4c7 0 8 -4 8 -9c-2 -59 -5 -140 -5 -223v-137c0 -84 3 -154 5 -215c0 -5 -1 -10 -8 -10zM269 642c-44 0 -81 39 -81 85c0 44 37 83 81 83s84 -39 84 -83c0 -46 -40 -85 -84 -85z" />
    <glyph glyph-name="Japan1.8096" unicode="&#x2174;" 
d="M536 -44h-3c-7 1 -15 2 -22 2c-9 0 -18 -1 -25 -2h-2c-7 0 -10 6 -13 12c-86 189 -172 375 -257 547c-2 3 -2 6 -2 8c0 5 4 8 11 8h3c3 0 7 -1 11 -1c32 0 82 10 115 15h2c5 0 9 -3 10 -6c41 -115 130 -321 176 -424c19 40 91 221 154 409c2 4 8 7 13 7h2
c6 -1 11 -1 16 -1c21 0 40 5 59 7h4c7 0 10 -3 10 -7c0 -3 -1 -6 -2 -9c-29 -57 -80 -171 -93 -201c0 0 -102 -242 -153 -351c-3 -5 -4 -13 -14 -13z" />
    <glyph glyph-name="Japan1.8097" unicode="&#x2175;" 
d="M397 -44h-3c-6 1 -16 2 -26 2c-12 0 -24 -1 -30 -2h-1c-6 0 -9 6 -12 12c-76 189 -146 375 -222 547c-1 3 -2 6 -2 8c0 5 4 8 10 8h2c3 0 6 -1 10 -1c28 0 77 10 106 15h2c5 0 7 -3 8 -6c37 -115 112 -321 152 -424c21 50 79 228 80 230c11 29 39 131 53 179
c2 4 7 7 11 7h2c5 -1 10 -1 15 -1c18 0 38 5 55 7h4c6 0 8 -2 8 -7c0 -3 0 -6 -2 -9c-25 -57 -66 -171 -77 -201c0 0 -86 -242 -131 -351c-3 -5 -4 -13 -12 -13zM791 -46h-4c-14 3 -33 4 -52 4c-21 0 -43 -1 -59 -4h-2c-6 0 -12 5 -12 10c2 59 5 130 5 214v140
c0 83 -3 140 -5 206c0 5 6 10 12 10h2c5 -1 10 -1 16 -1c30 0 70 10 95 15h4c7 0 9 -4 9 -9c-2 -59 -5 -140 -5 -223v-137c0 -84 3 -154 5 -215c0 -5 -2 -10 -9 -10zM729 642c-44 0 -81 39 -81 85c0 44 37 83 81 83s84 -39 84 -83c0 -46 -40 -85 -84 -85z" />
    <glyph glyph-name="Japan1.8098" unicode="&#x2176;" 
d="M334 -44h-3c-6 1 -16 2 -27 2c-13 0 -27 -1 -32 -2h-1c-6 0 -9 6 -11 12c-70 189 -137 375 -207 547c-1 3 -2 6 -2 8c0 5 4 8 10 8h2c3 0 6 -1 9 -1c27 0 76 10 103 15h2c4 0 7 -3 8 -7c33 -116 101 -338 136 -440c17 53 71 245 72 247c9 29 35 131 48 179c2 4 7 7 10 7
h2c5 -1 9 -1 14 -1c18 0 37 5 53 7h4c5 0 7 -2 7 -6c0 -3 -1 -6 -2 -10c-19 -60 -58 -171 -68 -201c0 0 -74 -240 -115 -351c-2 -5 -4 -13 -12 -13zM680 -45h-4c-13 3 -31 4 -49 4c-19 0 -39 -1 -54 -4h-2c-6 0 -11 4 -11 9c2 59 5 129 5 212v141c0 82 -3 140 -5 205
c0 5 5 9 11 9h2c4 -1 9 -1 14 -1c28 0 65 11 89 16h3c7 0 9 -5 9 -10c-2 -59 -5 -138 -5 -220v-139c0 -83 3 -152 5 -213c0 -5 -2 -9 -8 -9zM887 -45h-4c-13 3 -31 4 -49 4c-19 0 -39 -1 -54 -4h-2c-6 0 -11 4 -11 9c2 59 5 129 5 212v141c0 82 -3 140 -5 205c0 5 5 9 11 9
h2c4 -1 9 -1 14 -1c28 0 65 11 89 16h3c7 0 9 -5 9 -10c-2 -59 -5 -138 -5 -220v-139c0 -83 3 -152 5 -213c0 -5 -2 -9 -8 -9zM622 647c-41 0 -77 37 -77 80c0 41 36 78 77 78s78 -37 78 -78c0 -43 -37 -80 -78 -80zM828 647c-41 0 -76 37 -76 80c0 41 35 78 76 78
s79 -37 79 -78c0 -43 -38 -80 -79 -80z" />
    <glyph glyph-name="Japan1.8099" unicode="&#x2177;" 
d="M285 -44h-2c-5 1 -14 2 -24 2c-11 0 -23 -1 -28 -2h-1c-5 0 -7 6 -9 12c-61 189 -119 375 -179 547c-1 3 -1 5 -1 7c0 6 3 9 8 9h2c2 0 5 -1 8 -1c24 0 70 10 93 15h1c4 0 7 -3 8 -7c29 -116 86 -328 116 -430c15 53 58 235 59 237c8 29 30 131 41 179c1 4 6 7 9 7h2
c4 -1 8 -1 12 -1c16 0 32 5 45 7c2 0 4 1 5 1c5 0 6 -2 6 -6c0 -8 -124 -451 -160 -563c-2 -5 -4 -13 -11 -13zM917 -46h-4c-12 3 -27 4 -42 4c-16 0 -33 -1 -47 -4h-2c-6 0 -11 4 -11 9c2 59 5 130 5 213v141c0 82 -3 140 -5 205c0 5 5 9 11 9h2c4 -1 8 -1 12 -1
c25 0 55 11 77 16h3c7 0 9 -5 9 -10c-2 -59 -5 -138 -5 -220v-139c0 -83 3 -153 5 -214c0 -5 -2 -9 -8 -9zM585 -46h-4c-12 3 -27 4 -42 4c-16 0 -33 -1 -47 -4h-2c-6 0 -10 4 -10 9c2 59 4 130 4 213v141c0 82 -2 140 -4 205c0 5 4 9 10 9h2c4 -1 8 -1 12 -1
c25 0 55 11 77 16h3c7 0 9 -5 9 -10c-2 -59 -5 -138 -5 -220v-139c0 -83 3 -153 5 -214c0 -5 -2 -9 -8 -9zM751 -46h-4c-12 3 -27 4 -42 4c-17 0 -34 -1 -48 -4h-2c-6 0 -10 4 -10 9c2 59 5 130 5 213v141c0 82 -3 140 -5 205c0 5 4 9 10 9h2c4 -1 8 -1 12 -1
c26 0 56 11 78 16h3c7 0 8 -5 8 -10c-2 -59 -5 -138 -5 -220v-139c0 -83 3 -153 5 -214c0 -5 -1 -9 -7 -9zM698 654c-37 0 -69 34 -69 73c0 37 32 70 69 70s71 -33 71 -70c0 -39 -34 -73 -71 -73zM533 654c-37 0 -69 34 -69 73c0 37 32 70 69 70s71 -33 71 -70
c0 -39 -34 -73 -71 -73zM865 654c-37 0 -69 34 -69 73c0 37 32 70 69 70s71 -33 71 -70c0 -39 -34 -73 -71 -73z" />
    <glyph glyph-name="Japan1.8100" unicode="&#x2178;" 
d="M884 -45h-3c-19 2 -35 3 -51 3c-22 0 -44 -2 -70 -6h-1c-5 0 -8 6 -10 9c-36 64 -91 148 -137 222c-28 -42 -62 -95 -139 -222c-3 -4 -6 -8 -10 -8h-1c-14 3 -27 5 -39 5s-23 -2 -33 -3h-4c-7 0 -12 3 -12 9c0 4 2 9 6 14c19 26 40 52 59 79c0 0 91 121 134 186
c-67 104 -131 196 -182 270c-2 2 -2 4 -2 6c0 6 3 12 11 12h1c4 -1 9 -1 14 -1c26 0 62 6 96 14h1c4 0 8 -5 9 -7c28 -48 70 -129 121 -207c16 24 89 134 122 194c2 3 2 8 6 8h1c6 -1 13 -1 19 -1c24 0 50 5 68 7h1c7 0 11 -4 11 -10c0 -3 -1 -7 -4 -11l-64 -84
s-78 -102 -116 -155c62 -96 138 -206 204 -297c4 -6 6 -11 6 -16c0 -6 -3 -10 -12 -10zM321 -46h-4c-14 3 -33 4 -52 4c-21 0 -43 -1 -59 -4h-2c-6 0 -12 5 -12 10c2 59 6 130 6 214v140c0 83 -4 140 -6 206c0 5 6 10 12 10h2c5 -1 10 -1 16 -1c30 0 70 10 95 15h4
c7 0 8 -4 8 -9c-2 -59 -5 -140 -5 -223v-137c0 -84 3 -154 5 -215c0 -5 -1 -10 -8 -10zM260 642c-44 0 -82 39 -82 85c0 44 38 83 82 83s83 -39 83 -83c0 -46 -39 -85 -83 -85z" />
    <glyph glyph-name="Japan1.8101" unicode="&#x2179;" 
d="M788 -45h-2c-22 2 -40 3 -57 3c-24 0 -46 -2 -77 -6h-1c-5 0 -9 5 -11 8c-42 64 -104 148 -160 221c-95 -122 -110 -145 -163 -221c-3 -4 -8 -7 -12 -7h-1c-16 3 -31 5 -44 5c-12 0 -24 -2 -35 -3h-5c-9 0 -14 3 -14 9c0 3 2 8 7 13c48 56 93 105 148 173
c0 0 49 60 72 89c-74 105 -148 200 -209 274c-2 2 -2 4 -2 7c0 5 3 11 12 11h1c5 -1 11 -1 16 -1c28 0 63 6 103 14h1c4 0 7 -5 8 -7c33 -48 92 -126 151 -204c87 111 110 142 142 191c2 3 3 8 7 8h1c7 -1 14 -1 22 -1c26 0 52 5 72 7h2c8 0 13 -4 13 -10c0 -3 -2 -7 -5 -11
c-39 -45 -115 -125 -140 -157c0 0 -45 -56 -68 -85c73 -96 158 -203 236 -294c4 -5 7 -10 7 -15c0 -6 -6 -11 -15 -11z" />
    <glyph glyph-name="Japan1.8102" unicode="&#x3252;" 
d="M979 380c0 -264 -215 -479 -479 -479s-479 215 -479 479s215 479 479 479s479 -215 479 -479zM924 380c0 234 -190 424 -424 424s-424 -190 -424 -424s190 -424 424 -424s424 190 424 424zM787 94h-251c-7 0 -10 20 -10 37c0 11 1 21 4 24c107 137 182 249 182 380
c0 58 -19 94 -56 94c-54 0 -85 -102 -89 -125c-2 -10 -8 -16 -13 -16s-9 4 -9 15c-2 28 -12 41 -22 65c-1 4 -2 7 -2 9c0 23 66 109 146 109c89 0 146 -61 146 -172c0 -123 -95 -211 -171 -298l-26 -31h70c31 0 77 8 107 15c2 0 4 1 5 1c7 0 9 -5 9 -11v-4
c-3 -22 -8 -44 -8 -66v-12c0 -10 -4 -14 -12 -14zM466 94h-251c-7 0 -11 21 -11 39c0 10 1 19 4 22c110 141 183 245 183 380c0 58 -19 94 -56 94c-54 0 -85 -102 -89 -125c-2 -10 -8 -16 -14 -16c-4 0 -9 4 -9 15c-2 28 -12 41 -22 65c-1 4 -2 7 -2 9c0 23 66 109 146 109
c89 0 146 -61 146 -172c0 -118 -88 -204 -162 -288c-12 -14 -24 -27 -35 -41h70c31 0 78 8 108 15c2 0 4 1 5 1c7 0 8 -4 8 -10v-5c-3 -22 -7 -43 -7 -65v-13c0 -10 -4 -14 -12 -14z" />
    <glyph glyph-name="Japan1.8103" unicode="&#x3253;" 
d="M979 380c0 -264 -215 -479 -479 -479s-479 215 -479 479s215 479 479 479s479 -215 479 -479zM924 380c0 234 -190 424 -424 424s-424 -190 -424 -424s190 -424 424 -424s424 190 424 424zM525 205v13c0 9 5 13 10 13s11 -4 13 -13c10 -44 53 -88 91 -88
c29 0 93 12 93 130c0 107 -62 109 -91 109c-6 0 -12 0 -21 -2h-5c-6 0 -8 2 -8 7c0 2 1 4 1 6c1 6 2 12 2 19c0 6 -1 13 -2 18c0 2 -1 5 -1 7c0 5 3 9 11 9h2c11 0 18 -2 25 -2c53 0 70 50 70 112c0 42 -17 81 -56 81c-34 0 -69 -34 -91 -95c-4 -11 -9 -15 -13 -15
c-6 0 -10 7 -10 16c0 27 -4 43 -12 65c-1 1 -1 3 -1 4c0 0 44 82 143 82c79 0 136 -51 136 -138c0 -32 -6 -98 -73 -135c58 -18 96 -72 96 -143c0 -129 -76 -189 -190 -189c-53 0 -127 43 -127 68c0 4 0 7 2 12c5 13 6 33 6 49zM457 86h-244c-7 0 -11 22 -11 40
c0 10 1 19 4 22c32 41 53 74 87 126c50 76 90 159 90 253c0 58 -19 94 -56 94c-54 0 -85 -102 -89 -125c-2 -10 -8 -16 -13 -16s-9 4 -9 15c-2 28 -12 41 -22 65c-1 4 -2 7 -2 9c0 23 66 109 146 109c89 0 146 -61 146 -172c0 -120 -91 -207 -166 -292
c-11 -12 -21 -24 -31 -37h70c31 0 76 8 106 15c2 0 4 1 5 1c7 0 9 -5 9 -11v-4c-3 -22 -8 -44 -8 -66v-12c0 -10 -4 -14 -12 -14z" />
    <glyph glyph-name="Japan1.8104" unicode="&#x3254;" 
d="M979 380c0 -264 -215 -479 -479 -479s-479 215 -479 479s215 479 479 479s479 -215 479 -479zM924 380c0 234 -190 424 -424 424s-424 -190 -424 -424s190 -424 424 -424s424 190 424 424zM835 179h-3c-25 2 -43 3 -51 3l3 -82c0 -8 0 -15 -7 -15c-2 0 -3 1 -5 1
c-9 2 -20 3 -32 3s-25 -1 -33 -3c-2 0 -3 -1 -5 -1c-8 0 -8 8 -8 17l2 80h-107c-12 0 -66 -2 -85 -4h-2c-5 0 -8 4 -8 8c0 1 1 3 1 4c1 3 1 7 1 12s0 11 -1 16v3c0 7 3 12 6 18c51 115 125 266 187 422c3 6 7 11 12 11h7c16 0 48 3 58 8c3 1 5 2 8 2c5 0 9 -3 9 -13v-407
c8 0 26 1 49 4h5c6 0 9 -3 9 -8c0 -2 -1 -4 -1 -6c-2 -11 -4 -22 -4 -33c0 -8 1 -17 3 -25c0 -3 1 -5 1 -7c0 -6 -3 -8 -9 -8zM452 90h-244c-7 0 -11 22 -11 40c0 10 1 19 4 22c32 41 53 74 87 126c50 76 90 159 90 253c0 58 -19 94 -56 94c-54 0 -85 -102 -89 -125
c-2 -10 -8 -16 -13 -16s-9 4 -9 15c-2 28 -12 41 -22 65c-1 4 -2 7 -2 9c0 23 66 109 146 109c89 0 146 -61 146 -172c0 -120 -91 -207 -166 -292c-11 -12 -21 -24 -31 -37h70c31 0 76 8 106 15c2 0 4 1 5 1c7 0 9 -5 9 -11v-4c-3 -22 -8 -44 -8 -66v-12
c0 -10 -4 -14 -12 -14zM697 261v115c0 24 4 131 6 182c-29 -77 -106 -236 -133 -297h127z" />
    <glyph glyph-name="Japan1.8105" unicode="&#x3255;" 
d="M979 380c0 -264 -215 -479 -479 -479s-479 215 -479 479s215 479 479 479s479 -215 479 -479zM924 380c0 234 -190 424 -424 424s-424 -190 -424 -424s190 -424 424 -424s424 190 424 424zM769 582h-160l-17 -141c24 10 59 21 78 21c95 0 165 -61 165 -186
c0 -129 -85 -200 -199 -200c-58 0 -132 38 -132 59c0 2 1 5 2 8c4 11 5 28 5 60c0 12 3 16 7 16c5 0 12 -7 16 -14c18 -34 63 -67 102 -67c59 0 91 43 91 143c0 62 -15 118 -75 118c-30 0 -62 -12 -89 -32c-3 -3 -8 -4 -12 -4c-12 0 -24 9 -24 20v2c5 42 21 169 27 268
c1 10 8 15 15 15h75c33 0 104 3 134 10c2 0 4 1 6 1c5 0 9 -2 9 -9c0 -2 0 -4 -1 -7c-7 -23 -11 -41 -11 -65c0 -8 -3 -16 -12 -16zM454 87h-246c-8 0 -15 30 -15 48c0 7 1 12 3 14c87 112 183 235 183 379c0 58 -19 95 -56 95c-39 0 -77 -64 -89 -126
c-2 -10 -8 -16 -14 -16c-4 0 -9 4 -9 15c-2 28 -12 42 -22 66c-1 4 -2 7 -2 9c0 23 66 109 146 109c89 0 146 -61 146 -172c0 -122 -92 -210 -168 -296l-29 -34h70c31 0 78 9 108 16c2 0 4 1 5 1c7 0 8 -4 8 -10v-5c-3 -22 -7 -43 -7 -65v-13c0 -10 -4 -15 -12 -15z" />
    <glyph glyph-name="Japan1.8106" unicode="&#x3256;" 
d="M979 380c0 -264 -215 -479 -479 -479s-479 215 -479 479s215 479 479 479s479 -215 479 -479zM924 380c0 234 -190 424 -424 424s-424 -190 -424 -424s190 -424 424 -424s424 190 424 424zM778 667v-9c0 -16 3 -38 5 -50c1 -3 1 -6 1 -9c0 -8 -3 -12 -8 -12
c-4 0 -9 3 -12 8c-11 15 -34 37 -62 37c-76 0 -92 -178 -94 -204c33 41 62 46 84 46c123 0 137 -141 137 -198c0 -129 -67 -200 -153 -200c-123 0 -160 139 -160 264c0 195 61 334 189 341c11 0 21 1 30 1c32 0 43 0 43 -15zM454 91h-251c-7 0 -10 20 -10 37c0 11 1 21 4 24
c107 137 182 249 182 380c0 58 -19 94 -56 94c-54 0 -85 -102 -89 -125c-2 -10 -8 -16 -13 -16s-9 4 -9 15c-2 28 -12 41 -22 65c-1 4 -2 7 -2 9c0 23 66 109 146 109c89 0 146 -61 146 -172c0 -121 -91 -208 -166 -293l-31 -36h70c31 0 77 8 107 15c2 0 4 1 5 1
c7 0 9 -5 9 -11v-4c-3 -22 -8 -44 -8 -66v-12c0 -10 -4 -14 -12 -14zM678 125c48 0 57 83 57 155c0 62 -11 143 -56 143c-46 0 -68 -70 -68 -159c0 -84 27 -139 67 -139z" />
    <glyph glyph-name="Japan1.8107" unicode="&#x3257;" 
d="M979 380c0 -264 -215 -479 -479 -479s-479 215 -479 479s215 479 479 479s479 -215 479 -479zM613 77h-3c-7 2 -21 4 -34 4c-10 0 -20 -1 -27 -3c-3 -1 -5 -1 -7 -1c-6 0 -8 3 -8 7c0 5 2 12 6 20c78 161 160 355 205 461h-60c-32 0 -117 -1 -148 -8h-4c-6 0 -9 3 -9 10
v4c2 13 3 25 3 38c0 11 -1 23 -3 34c0 2 -1 4 -1 5c0 11 8 13 14 13c32 0 110 -3 148 -3h128c3 0 6 0 8 -1c-78 90 -193 147 -321 147c-234 0 -424 -190 -424 -424s190 -424 424 -424s424 190 424 424c0 101 -35 194 -94 267v-32c0 -6 -2 -11 -5 -19
c-71 -169 -149 -357 -203 -511c-1 -3 -3 -8 -9 -8zM466 80h-251c-7 0 -11 22 -11 40c0 10 1 19 4 22c87 112 183 235 183 379c0 58 -19 95 -56 95c-39 0 -77 -64 -89 -126c-2 -10 -8 -16 -14 -16c-4 0 -9 4 -9 15c-2 28 -12 42 -22 66c-1 4 -2 7 -2 9c0 23 66 109 146 109
c89 0 146 -61 146 -172c0 -123 -94 -211 -170 -298l-27 -32h70c31 0 78 9 108 16c2 0 4 1 5 1c7 0 8 -4 8 -10v-5c-3 -22 -7 -43 -7 -65v-13c0 -10 -4 -15 -12 -15z" />
    <glyph glyph-name="Japan1.8108" unicode="&#x3258;" 
d="M979 380c0 -264 -215 -479 -479 -479s-479 215 -479 479s215 479 479 479s479 -215 479 -479zM924 380c0 234 -190 424 -424 424s-424 -190 -424 -424s190 -424 424 -424s424 190 424 424zM742 408c48 -27 92 -84 92 -154c0 -117 -73 -178 -163 -178
c-89 0 -162 54 -162 168c0 72 39 123 87 151c-29 21 -66 65 -66 134c0 101 70 153 143 153c79 0 142 -57 142 -151c0 -52 -25 -101 -73 -123zM454 89h-250c-7 0 -11 22 -11 40c0 10 1 19 4 22c145 185 182 272 182 379c0 58 -19 95 -56 95c-39 0 -77 -64 -89 -126
c-2 -10 -8 -16 -13 -16s-9 4 -9 15c-2 28 -12 42 -22 66c-1 4 -2 7 -2 9c0 23 66 109 146 109c89 0 146 -61 146 -172c0 -124 -96 -212 -172 -300c-9 -10 -17 -20 -25 -30h70c31 0 77 9 107 16c2 0 4 1 5 1c7 0 9 -5 9 -11v-4c-3 -22 -8 -44 -8 -66v-12
c0 -10 -4 -15 -12 -15zM644 368c-20 -9 -48 -48 -48 -119c0 -79 32 -121 76 -121c38 0 75 32 75 104c0 67 -63 113 -103 136zM694 435c39 31 40 86 40 99c0 62 -22 98 -63 98c-32 0 -59 -34 -59 -83c0 -51 31 -86 82 -114z" />
    <glyph glyph-name="Japan1.8109" unicode="&#x3259;" 
d="M979 380c0 -264 -215 -479 -479 -479s-479 215 -479 479s215 479 479 479s479 -215 479 -479zM924 380c0 234 -190 424 -424 424s-424 -190 -424 -424s190 -424 424 -424s424 190 424 424zM548 100v9c0 15 -2 34 -5 46c-1 4 -2 8 -2 10c0 6 3 9 7 9c3 0 8 -3 12 -6
c17 -15 47 -30 73 -30c76 0 102 113 105 196c-27 -32 -51 -44 -86 -44c-91 0 -136 90 -136 184c0 110 50 207 154 207c127 0 158 -146 158 -269c0 -87 -5 -334 -225 -334c-51 0 -55 9 -55 22zM454 89h-249c-7 0 -11 23 -11 41c0 9 1 17 3 20c107 137 182 249 182 380
c0 58 -19 94 -56 94c-54 0 -85 -102 -89 -125c-2 -10 -8 -16 -13 -16s-9 4 -9 15c-2 28 -12 41 -22 65c-1 4 -2 7 -2 9c0 23 66 109 146 109c89 0 146 -61 146 -172c0 -122 -94 -210 -170 -297l-27 -32h70c31 0 77 8 107 15c2 0 4 1 5 1c7 0 9 -5 9 -11v-4
c-3 -22 -8 -44 -8 -66v-12c0 -10 -4 -14 -12 -14zM666 344c40 0 68 42 68 123c0 32 -4 166 -64 166c-43 0 -64 -52 -64 -153c0 -74 22 -136 60 -136z" />
    <glyph glyph-name="Japan1.8110" unicode="&#x325a;" 
d="M979 380c0 -264 -215 -479 -479 -479s-479 215 -479 479s215 479 479 479s479 -215 479 -479zM924 380c0 234 -190 424 -424 424s-424 -190 -424 -424s190 -424 424 -424s424 190 424 424zM681 76c-116 0 -151 119 -151 297s36 308 151 308c118 0 152 -131 152 -309
s-33 -296 -152 -296zM193 206v13c0 9 5 13 10 13s11 -4 13 -13c10 -44 49 -87 87 -87c28 0 90 11 90 133c0 56 -19 105 -78 105c-10 0 -18 0 -33 -3h-4c-6 0 -9 3 -9 8c0 2 1 4 1 6c1 4 1 9 1 13c0 8 -1 15 -2 22c0 2 -1 4 -1 6c0 6 3 10 12 10h2c11 0 18 -1 25 -1
c28 0 69 13 69 113c0 41 -16 82 -55 82c-34 0 -72 -38 -90 -97c-3 -10 -8 -15 -13 -15c-6 0 -11 7 -11 17c0 27 -3 42 -11 64c-1 1 -1 3 -1 4c0 17 61 83 142 83c79 0 134 -51 134 -138c0 -89 -48 -123 -71 -136c58 -18 94 -71 94 -142c0 -135 -79 -189 -189 -189
c-55 0 -121 46 -121 67c0 4 1 8 3 13c5 13 6 33 6 49zM681 133c43 0 56 91 56 239c0 126 -3 252 -56 252c-52 0 -56 -125 -56 -251c0 -148 11 -240 56 -240z" />
    <glyph glyph-name="Japan1.8111" unicode="&#x325b;" 
d="M979 380c0 -264 -215 -479 -479 -479s-479 215 -479 479s215 479 479 479s479 -215 479 -479zM924 380c0 234 -190 424 -424 424s-424 -190 -424 -424s190 -424 424 -424s424 190 424 424zM206 208v10c0 8 5 12 10 12s11 -4 13 -13c11 -44 52 -84 94 -84
c69 0 101 53 101 131c0 57 -21 107 -87 107c-11 0 -20 0 -36 -3h-5c-5 0 -7 2 -7 6c0 2 1 4 1 6c1 4 1 9 1 14c0 8 -1 17 -2 24c0 2 -1 4 -1 6c0 5 3 8 10 8h3c12 0 20 -2 28 -2c22 0 76 7 76 113c0 38 -17 81 -60 81h-1c-38 0 -76 -34 -99 -93c-4 -10 -9 -14 -14 -14
s-10 6 -10 15c0 28 -3 43 -11 65c0 1 -1 3 -1 4c0 18 66 81 151 81c86 0 149 -51 149 -138c0 -23 -4 -101 -84 -136c65 -16 111 -72 111 -144c0 -74 -33 -187 -208 -187c-61 0 -131 45 -131 68c0 3 0 6 2 10c5 14 7 37 7 53zM772 87h-3c-12 2 -26 3 -40 3
c-15 0 -29 -1 -41 -3h-3c-8 0 -10 6 -10 12c1 47 6 104 6 171v298c-90 -61 -103 -64 -108 -64c-4 0 -7 3 -7 10v4c0 3 1 6 1 8c0 9 -3 13 -6 24c-1 4 -2 6 -2 9c0 5 3 7 9 10c58 27 81 50 134 92c3 2 7 5 14 5h7c11 0 28 3 44 8c2 1 4 1 6 1c7 0 10 -5 10 -13
c-1 -48 -4 -122 -4 -155v-237c0 -67 4 -121 5 -171c0 -5 -3 -12 -12 -12z" />
    <glyph glyph-name="Japan1.8112" unicode="&#x249c;" 
d="M690 465v-257c0 -24 6 -38 21 -38c7 0 16 3 27 9c1 0 2 1 2 1c8 0 14 -22 14 -38c0 -46 -92 -47 -94 -47c-47 0 -70 30 -80 55c-37 -44 -100 -66 -164 -66c-97 0 -156 60 -156 153c0 136 96 182 210 201c59 10 73 8 101 13c0 91 -16 151 -95 151
c-99 0 -140 -82 -148 -101c-2 -4 -7 -8 -11 -8s-7 3 -7 11c0 33 -5 72 -9 83c0 1 -1 3 -1 4c0 21 98 77 191 77c120 0 199 -68 199 -203zM569 234v158c-20 -4 -39 -2 -73 -10c-82 -19 -114 -59 -114 -121c0 -64 26 -103 84 -103c51 0 103 52 103 76zM815 -77l-18 11
c-4 2 -5 5 -5 7c0 4 3 8 5 12c82 147 112 285 112 427s-28 274 -112 427c-2 4 -5 8 -5 12c0 2 1 5 5 7l18 11c3 1 5 2 7 2c15 0 157 -183 157 -459s-142 -459 -157 -459c-2 0 -4 1 -7 2zM203 -66l-18 -11c-3 -1 -5 -2 -7 -2c-15 0 -157 183 -157 459s142 459 157 459
c2 0 4 -1 7 -2l18 -11c4 -2 5 -5 5 -7c0 -4 -3 -8 -5 -12c-84 -153 -112 -285 -112 -427s30 -280 112 -427c2 -4 5 -8 5 -12c0 -2 -1 -5 -5 -7z" />
    <glyph glyph-name="Japan1.8113" unicode="&#x249d;" 
d="M394 -45h-3c-14 3 -32 5 -49 5s-34 -2 -46 -4c-3 -1 -6 -1 -8 -1c-7 0 -7 5 -7 14c2 65 4 147 4 240v345c0 106 -2 171 -4 241c0 6 1 11 7 11h4c4 -1 8 -1 12 -1c27 0 67 12 89 16h2c5 0 10 -5 10 -11c-2 -73 -4 -149 -4 -256v-116c39 63 92 92 161 92
c156 0 222 -147 222 -281c0 -157 -88 -303 -249 -303c-58 0 -95 23 -133 60c0 -16 1 -27 1 -38c0 -6 -2 -13 -9 -13zM522 14c106 0 136 142 136 241c0 90 -32 202 -123 202c-115 0 -140 -127 -140 -238c0 -90 34 -205 127 -205zM203 -66l-18 -11c-3 -1 -5 -2 -7 -2
c-15 0 -157 183 -157 459s142 459 157 459c2 0 4 -1 7 -2l18 -11c4 -2 5 -5 5 -7c0 -4 -3 -8 -5 -12c-84 -153 -112 -285 -112 -427s30 -280 112 -427c2 -4 5 -8 5 -12c0 -2 -1 -5 -5 -7zM815 -77l-18 11c-4 2 -5 5 -5 7c0 4 3 8 5 12c82 147 112 285 112 427
s-28 274 -112 427c-2 4 -5 8 -5 12c0 2 1 5 5 7l18 11c3 1 5 2 7 2c15 0 157 -183 157 -459s-142 -459 -157 -459c-2 0 -4 1 -7 2z" />
    <glyph glyph-name="Japan1.8114" unicode="&#x249e;" 
d="M712 135c-49 -28 -110 -51 -169 -51c-179 0 -289 122 -289 285c0 181 118 299 294 299c59 0 105 -10 154 -38c4 -2 7 -8 7 -14c0 -1 -1 -3 -1 -4c-4 -11 -8 -48 -8 -81c0 -7 -4 -9 -8 -9c-6 0 -11 3 -13 7c-15 32 -68 76 -130 76c-37 0 -158 -10 -158 -233
c0 -131 66 -219 153 -219s127 48 146 78c2 3 7 6 12 6c4 0 7 -2 7 -9c0 -33 5 -65 9 -76c0 -1 1 -3 1 -4c0 -6 -3 -11 -7 -13zM815 -77l-18 11c-4 2 -5 5 -5 7c0 4 3 8 5 12c82 147 112 285 112 427s-28 274 -112 427c-2 4 -5 8 -5 12c0 2 1 5 5 7l18 11c3 1 5 2 7 2
c15 0 157 -183 157 -459s-142 -459 -157 -459c-2 0 -4 1 -7 2zM203 -66l-18 -11c-3 -1 -5 -2 -7 -2c-15 0 -157 183 -157 459s142 459 157 459c2 0 4 -1 7 -2l18 -11c4 -2 5 -5 5 -7c0 -4 -3 -8 -5 -12c-84 -153 -112 -285 -112 -427s30 -280 112 -427c2 -4 5 -8 5 -12
c0 -2 -1 -5 -5 -7z" />
    <glyph glyph-name="Japan1.8115" unicode="&#x249f;" 
d="M718 -47h-4c-13 2 -30 4 -47 4s-34 -2 -48 -4h-3c-5 0 -10 3 -10 10v59c-47 -55 -101 -79 -166 -79c-127 0 -231 95 -231 289c0 163 100 295 248 295c58 0 112 -27 149 -71v96c0 107 -2 169 -4 240c0 6 5 11 10 11h2c4 -1 8 -1 13 -1c27 0 65 11 88 16h4c6 0 8 -5 8 -11
c-3 -72 -5 -142 -5 -254v-349c0 -94 2 -159 5 -241c0 -6 -2 -10 -9 -10zM466 11c106 0 143 143 143 241c0 90 -40 201 -130 201c-116 0 -142 -126 -142 -237c0 -90 36 -205 129 -205zM203 -66l-18 -11c-3 -1 -5 -2 -7 -2c-15 0 -157 183 -157 459s142 459 157 459
c2 0 4 -1 7 -2l18 -11c4 -2 5 -5 5 -7c0 -4 -3 -8 -5 -12c-84 -153 -112 -285 -112 -427s30 -280 112 -427c2 -4 5 -8 5 -12c0 -2 -1 -5 -5 -7zM815 -77l-18 11c-4 2 -5 5 -5 7c0 4 3 8 5 12c82 147 112 285 112 427s-28 274 -112 427c-2 4 -5 8 -5 12c0 2 1 5 5 7l18 11
c3 1 5 2 7 2c15 0 157 -183 157 -459s-142 -459 -157 -459c-2 0 -4 1 -7 2z" />
    <glyph glyph-name="Japan1.8116" unicode="&#x24a0;" 
d="M715 362h-333c0 -126 50 -212 152 -212c70 0 131 54 155 108c1 3 6 6 11 6c4 0 7 -2 7 -9c0 -33 6 -70 10 -81c0 -1 1 -3 1 -4c0 -5 -3 -11 -6 -13c-40 -38 -113 -73 -181 -73c-178 0 -276 114 -276 284c0 158 85 300 252 300c138 0 228 -92 228 -286
c0 -8 -3 -18 -20 -20zM382 422h205c15 0 23 3 23 18c0 97 -26 167 -103 167c-84 0 -125 -98 -125 -185zM815 -77l-18 11c-4 2 -5 5 -5 7c0 4 3 8 5 12c82 147 112 285 112 427s-28 274 -112 427c-2 4 -5 8 -5 12c0 2 1 5 5 7l18 11c3 1 5 2 7 2c15 0 157 -183 157 -459
s-142 -459 -157 -459c-2 0 -4 1 -7 2zM203 -66l-18 -11c-3 -1 -5 -2 -7 -2c-15 0 -157 183 -157 459s142 459 157 459c2 0 4 -1 7 -2l18 -11c4 -2 5 -5 5 -7c0 -4 -3 -8 -5 -12c-84 -153 -112 -285 -112 -427s30 -280 112 -427c2 -4 5 -8 5 -12c0 -2 -1 -5 -5 -7z" />
    <glyph glyph-name="Japan1.8117" unicode="&#x24a1;" 
d="M528 -64h-4c-12 2 -28 4 -45 4c-16 0 -32 -2 -46 -4h-2c-6 0 -12 4 -12 11v487l-78 -3h-3c-8 0 -10 2 -10 13c2 7 3 15 3 23s-1 16 -3 23v5c0 6 2 9 12 9l79 -3v9c0 215 111 288 239 288h13c5 0 8 -8 8 -14c0 -2 -1 -3 -1 -4c-2 -7 -4 -21 -4 -38c0 -11 0 -23 2 -34v-2
c0 -8 -6 -10 -11 -10c-2 0 -4 1 -5 1c-23 14 -43 21 -59 21c-43 0 -64 -43 -64 -104v-113l107 3c9 0 12 -2 12 -8c0 -2 -1 -4 -1 -6c-2 -8 -3 -18 -3 -27c0 -7 1 -14 2 -19v-4c0 -6 -2 -9 -10 -9l-107 3v-487c0 -7 -3 -11 -9 -11zM203 -66l-18 -11c-3 -1 -5 -2 -7 -2
c-15 0 -157 183 -157 459s142 459 157 459c2 0 4 -1 7 -2l18 -11c4 -2 5 -5 5 -7c0 -4 -3 -8 -5 -12c-84 -153 -112 -285 -112 -427s30 -280 112 -427c2 -4 5 -8 5 -12c0 -2 -1 -5 -5 -7zM815 -77l-18 11c-4 2 -5 5 -5 7c0 4 3 8 5 12c82 147 112 285 112 427
s-28 274 -112 427c-2 4 -5 8 -5 12c0 2 1 5 5 7l18 11c3 1 5 2 7 2c15 0 157 -183 157 -459s-142 -459 -157 -459c-2 0 -4 1 -7 2z" />
    <glyph glyph-name="Japan1.8118" unicode="&#x24a2;" 
d="M441 308h42c174 0 264 -48 264 -165s-108 -196 -271 -196c-167 0 -226 74 -226 149c0 55 43 102 87 126c-32 10 -50 38 -50 75c0 35 27 76 72 103c-56 33 -93 94 -93 169c0 117 92 194 226 194h5c30 0 51 -7 75 -13c35 19 92 49 142 49c8 0 10 -7 11 -14
c2 -17 6 -34 15 -48c1 -2 2 -4 2 -6c0 -5 -4 -10 -10 -10h-10c-55 0 -87 -7 -96 -10c50 -36 66 -100 66 -147c0 -132 -111 -187 -242 -187c-13 0 -25 1 -38 4c-23 -16 -26 -30 -26 -44c0 -20 9 -29 55 -29zM203 -66l-18 -11c-3 -1 -5 -2 -7 -2c-15 0 -157 183 -157 459
s142 459 157 459c2 0 4 -1 7 -2l18 -11c4 -2 5 -5 5 -7c0 -4 -3 -8 -5 -12c-84 -153 -112 -285 -112 -427s30 -280 112 -427c2 -4 5 -8 5 -12c0 -2 -1 -5 -5 -7zM815 -77l-18 11c-4 2 -5 5 -5 7c0 4 3 8 5 12c82 147 112 285 112 427s-28 274 -112 427c-2 4 -5 8 -5 12
c0 2 1 5 5 7l18 11c3 1 5 2 7 2c15 0 157 -183 157 -459s-142 -459 -157 -459c-2 0 -4 1 -7 2zM436 207h-32c-38 -21 -56 -64 -56 -97c0 -47 16 -119 135 -119c99 0 142 71 142 118c0 72 -45 98 -189 98zM478 429c71 0 96 66 96 136c0 82 -16 144 -91 144
c-29 0 -99 -10 -99 -143c0 -72 25 -137 94 -137z" />
    <glyph glyph-name="Japan1.8119" unicode="&#x24a3;" 
d="M735 -43h-1c-15 2 -33 4 -50 4s-35 -2 -51 -4h-2c-6 0 -12 6 -12 12c1 66 5 116 5 210v101c0 119 -16 177 -99 177c-55 0 -120 -57 -120 -131v-147c0 -94 3 -132 5 -211c0 -6 -2 -11 -9 -11h-4c-13 2 -31 4 -50 4s-37 -2 -51 -4h-2c-6 0 -12 5 -12 11c2 66 5 117 5 211
v378c0 107 -3 164 -5 240c0 6 5 11 11 11h2c4 -1 9 -1 14 -1c27 0 65 10 88 15h4c7 0 9 -4 9 -10c-2 -74 -5 -149 -5 -256v-102c28 44 87 78 153 78c131 0 184 -82 184 -235v-118c0 -93 4 -138 5 -209c0 -5 -4 -13 -12 -13zM203 -66l-18 -11c-3 -1 -5 -2 -7 -2
c-15 0 -157 183 -157 459s142 459 157 459c2 0 4 -1 7 -2l18 -11c4 -2 5 -5 5 -7c0 -4 -3 -8 -5 -12c-84 -153 -112 -285 -112 -427s30 -280 112 -427c2 -4 5 -8 5 -12c0 -2 -1 -5 -5 -7zM815 -77l-18 11c-4 2 -5 5 -5 7c0 4 3 8 5 12c82 147 112 285 112 427
s-28 274 -112 427c-2 4 -5 8 -5 12c0 2 1 5 5 7l18 11c3 1 5 2 7 2c15 0 157 -183 157 -459s-142 -459 -157 -459c-2 0 -4 1 -7 2z" />
    <glyph glyph-name="Japan1.8120" unicode="&#x24a4;" 
d="M555 -39h-3c-12 2 -32 4 -51 4s-39 -2 -52 -4h-2c-6 0 -12 5 -12 11c2 58 5 126 5 208v137c0 81 -3 137 -5 201c0 6 6 11 12 11h2c4 -1 9 -1 14 -1c27 0 66 10 89 15h4c6 0 9 -4 9 -10c-2 -58 -5 -136 -5 -217v-135c0 -82 3 -149 5 -209c0 -6 -3 -11 -10 -11zM203 -66
l-18 -11c-3 -1 -5 -2 -7 -2c-15 0 -157 183 -157 459s142 459 157 459c2 0 4 -1 7 -2l18 -11c4 -2 5 -5 5 -7c0 -4 -3 -8 -5 -12c-84 -153 -112 -285 -112 -427s30 -280 112 -427c2 -4 5 -8 5 -12c0 -2 -1 -5 -5 -7zM815 -77l-18 11c-4 2 -5 5 -5 7c0 4 3 8 5 12
c82 147 112 285 112 427s-28 274 -112 427c-2 4 -5 8 -5 12c0 2 1 5 5 7l18 11c3 1 5 2 7 2c15 0 157 -183 157 -459s-142 -459 -157 -459c-2 0 -4 1 -7 2zM499 621c-45 0 -83 40 -83 87c0 45 38 84 83 84s85 -39 85 -84c0 -47 -40 -87 -85 -87z" />
    <glyph glyph-name="Japan1.8121" unicode="&#x24a5;" 
d="M316 -88h-6c-6 0 -12 6 -12 12c-1 17 -1 41 -12 72c-1 2 -1 4 -1 6c0 7 5 10 8 10h2c16 -10 42 -22 68 -22c46 0 93 35 93 171v259c0 91 -3 96 -5 160c0 6 5 11 11 11h2c4 -1 9 -1 14 -1c29 0 73 10 96 15h4c6 0 8 -5 8 -11c-2 -68 -4 -83 -4 -174v-163
c0 -172 -23 -345 -266 -345zM203 -66l-18 -11c-3 -1 -5 -2 -7 -2c-15 0 -157 183 -157 459s142 459 157 459c2 0 4 -1 7 -2l18 -11c4 -2 5 -5 5 -7c0 -4 -3 -8 -5 -12c-84 -153 -112 -285 -112 -427s30 -280 112 -427c2 -4 5 -8 5 -12c0 -2 -1 -5 -5 -7zM815 -77l-18 11
c-4 2 -5 5 -5 7c0 4 3 8 5 12c82 147 112 285 112 427s-28 274 -112 427c-2 4 -5 8 -5 12c0 2 1 5 5 7l18 11c3 1 5 2 7 2c15 0 157 -183 157 -459s-142 -459 -157 -459c-2 0 -4 1 -7 2zM518 666c-45 0 -83 40 -83 87c0 45 38 85 83 85s85 -40 85 -85c0 -47 -40 -87 -85 -87
z" />
    <glyph glyph-name="Japan1.8122" unicode="&#x24a6;" 
d="M762 -39h-1c-24 2 -48 4 -73 4c-19 0 -37 -1 -55 -6h-3c-7 0 -13 6 -16 10c-45 74 -112 179 -173 268l-13 -12v-10c0 -94 2 -175 4 -242c0 -6 -2 -11 -9 -11h-4c-13 2 -30 4 -48 4c-17 0 -34 -2 -48 -4h-2c-6 0 -12 5 -12 11c2 58 5 147 5 241v349c0 107 -3 153 -5 238
c0 6 5 11 11 11h2c4 -1 8 -1 13 -1c26 0 61 11 84 16h4c7 0 9 -5 9 -11c-3 -78 -4 -148 -4 -255v-253c48 44 160 153 205 214c6 8 10 9 13 9h10c22 0 57 4 87 8h3c8 0 11 -4 11 -10c0 -4 -2 -10 -7 -14c-46 -41 -99 -86 -162 -144c-26 -24 -43 -43 -66 -65
c97 -137 167 -232 249 -322c3 -3 4 -7 4 -10c0 -7 -5 -13 -13 -13zM203 -66l-18 -11c-3 -1 -5 -2 -7 -2c-15 0 -157 183 -157 459s142 459 157 459c2 0 4 -1 7 -2l18 -11c4 -2 5 -5 5 -7c0 -4 -3 -8 -5 -12c-84 -153 -112 -285 -112 -427s30 -280 112 -427c2 -4 5 -8 5 -12
c0 -2 -1 -5 -5 -7zM815 -77l-18 11c-4 2 -5 5 -5 7c0 4 3 8 5 12c82 147 112 285 112 427s-28 274 -112 427c-2 4 -5 8 -5 12c0 2 1 5 5 7l18 11c3 1 5 2 7 2c15 0 157 -183 157 -459s-142 -459 -157 -459c-2 0 -4 1 -7 2z" />
    <glyph glyph-name="Japan1.8123" unicode="&#x24a7;" 
d="M563 -50h-3c-18 3 -40 5 -62 5c-20 0 -40 -2 -57 -5h-3c-6 0 -7 7 -7 12c1 81 5 148 5 241v366c0 88 -4 147 -7 220c0 6 1 12 9 12h2c8 -1 16 -1 24 -1c33 0 65 7 93 12h3c7 0 8 -8 8 -13c-2 -71 -3 -142 -3 -230v-366c0 -93 4 -155 5 -241c0 -5 0 -12 -7 -12zM203 -66
l-18 -11c-3 -1 -5 -2 -7 -2c-15 0 -157 183 -157 459s142 459 157 459c2 0 4 -1 7 -2l18 -11c4 -2 5 -5 5 -7c0 -4 -3 -8 -5 -12c-84 -153 -112 -285 -112 -427s30 -280 112 -427c2 -4 5 -8 5 -12c0 -2 -1 -5 -5 -7zM815 -77l-18 11c-4 2 -5 5 -5 7c0 4 3 8 5 12
c82 147 112 285 112 427s-28 274 -112 427c-2 4 -5 8 -5 12c0 2 1 5 5 7l18 11c3 1 5 2 7 2c15 0 157 -183 157 -459s-142 -459 -157 -459c-2 0 -4 1 -7 2z" />
    <glyph glyph-name="Japan1.8124" unicode="&#x24a8;" 
d="M812 92h-1c-14 3 -30 4 -46 4s-32 -1 -46 -4h-2c-6 0 -10 6 -10 12c1 66 4 105 4 198v113c0 119 -17 176 -73 176c-53 0 -86 -63 -86 -131v-158c0 -93 2 -127 4 -197c0 -5 -3 -13 -10 -13h-1c-14 3 -29 4 -45 4c-15 0 -31 -1 -45 -4h-2c-6 0 -10 6 -10 12
c1 67 4 105 4 199v112c0 119 -22 176 -75 176c-46 0 -79 -68 -79 -137v-152c0 -94 3 -130 4 -199c0 -6 -2 -11 -8 -11h-3c-11 3 -29 4 -46 4s-35 -1 -47 -4h-2c-5 0 -10 5 -10 11c1 63 4 106 4 200v163c0 73 -3 132 -4 180c0 6 4 10 9 10h2c4 -1 8 -1 12 -1
c24 0 58 10 78 15h3c7 0 9 -6 9 -11c0 -16 -1 -54 -2 -69c23 44 58 76 117 76c55 0 96 -32 120 -95c38 68 92 95 144 95c97 0 146 -82 146 -234v-130c0 -93 2 -128 4 -197c0 -5 -4 -13 -11 -13zM203 -66l-18 -11c-3 -1 -5 -2 -7 -2c-15 0 -157 183 -157 459s142 459 157 459
c2 0 4 -1 7 -2l18 -11c4 -2 5 -5 5 -7c0 -4 -3 -8 -5 -12c-84 -153 -112 -285 -112 -427s30 -280 112 -427c2 -4 5 -8 5 -12c0 -2 -1 -5 -5 -7zM815 -77l-18 11c-4 2 -5 5 -5 7c0 4 3 8 5 12c82 147 112 285 112 427s-28 274 -112 427c-2 4 -5 8 -5 12c0 2 1 5 5 7l18 11
c3 1 5 2 7 2c15 0 157 -183 157 -459s-142 -459 -157 -459c-2 0 -4 1 -7 2z" />
    <glyph glyph-name="Japan1.8125" unicode="&#x24a9;" 
d="M725 96h-1c-15 3 -33 4 -50 4s-35 -1 -51 -4h-2c-6 0 -11 6 -11 12c1 66 4 105 4 199v112c0 119 -16 176 -99 176c-55 0 -119 -57 -119 -131v-157c0 -94 2 -122 4 -200c0 -6 -2 -11 -8 -11h-4c-13 3 -31 4 -50 4s-37 -1 -51 -4h-2c-6 0 -12 5 -12 11c2 66 5 106 5 200
v155c0 107 -3 112 -5 188c0 6 2 11 7 11h2c4 -1 9 -1 14 -1c28 0 69 10 92 15h4c7 0 8 -4 8 -10c0 -23 -3 -57 -4 -71c28 43 86 76 152 76c131 0 184 -83 184 -235v-128c0 -93 4 -127 5 -198c0 -5 -4 -13 -12 -13zM203 -66l-18 -11c-3 -1 -5 -2 -7 -2
c-15 0 -157 183 -157 459s142 459 157 459c2 0 4 -1 7 -2l18 -11c4 -2 5 -5 5 -7c0 -4 -3 -8 -5 -12c-84 -153 -112 -285 -112 -427s30 -280 112 -427c2 -4 5 -8 5 -12c0 -2 -1 -5 -5 -7zM815 -77l-18 11c-4 2 -5 5 -5 7c0 4 3 8 5 12c82 147 112 285 112 427
s-28 274 -112 427c-2 4 -5 8 -5 12c0 2 1 5 5 7l18 11c3 1 5 2 7 2c15 0 157 -183 157 -459s-142 -459 -157 -459c-2 0 -4 1 -7 2z" />
    <glyph glyph-name="Japan1.8126" unicode="&#x24aa;" 
d="M500 87c-163 0 -263 131 -263 291s100 291 263 291c165 0 263 -131 263 -291s-98 -291 -263 -291zM498 149c89 0 134 88 134 230s-37 230 -128 230c-88 0 -135 -89 -135 -230c0 -143 38 -230 129 -230zM815 -77l-18 11c-4 2 -5 5 -5 7c0 4 3 8 5 12
c82 147 112 285 112 427s-28 274 -112 427c-2 4 -5 8 -5 12c0 2 1 5 5 7l18 11c3 1 5 2 7 2c15 0 157 -183 157 -459s-142 -459 -157 -459c-2 0 -4 1 -7 2zM203 -66l-18 -11c-3 -1 -5 -2 -7 -2c-15 0 -157 183 -157 459s142 459 157 459c2 0 4 -1 7 -2l18 -11
c4 -2 5 -5 5 -7c0 -4 -3 -8 -5 -12c-84 -153 -112 -285 -112 -427s30 -280 112 -427c2 -4 5 -8 5 -12c0 -2 -1 -5 -5 -7z" />
    <glyph glyph-name="Japan1.8127" unicode="&#x24ab;" 
d="M394 -75h-2c-13 2 -32 4 -50 4c-19 0 -37 -2 -50 -4h-4c-6 0 -8 5 -8 11c2 66 4 141 4 231v362c0 74 -2 126 -4 189c0 6 2 11 8 11h4c4 -1 9 -1 14 -1c26 0 63 10 85 14h1c6 0 11 -5 11 -11c-1 -34 -2 -73 -3 -87c35 57 92 93 161 93c156 0 222 -148 222 -282
c0 -156 -88 -302 -249 -302c-47 0 -93 19 -134 52v-39c0 -90 3 -160 5 -230c0 -6 -6 -11 -11 -11zM521 221c106 0 136 141 136 240c0 90 -31 202 -122 202c-115 0 -141 -127 -141 -238c0 -90 34 -204 127 -204zM203 -66l-18 -11c-3 -1 -5 -2 -7 -2c-15 0 -157 183 -157 459
s142 459 157 459c2 0 4 -1 7 -2l18 -11c4 -2 5 -5 5 -7c0 -4 -3 -8 -5 -12c-84 -153 -112 -285 -112 -427s30 -280 112 -427c2 -4 5 -8 5 -12c0 -2 -1 -5 -5 -7zM815 -77l-18 11c-4 2 -5 5 -5 7c0 4 3 8 5 12c82 147 112 285 112 427s-28 274 -112 427c-2 4 -5 8 -5 12
c0 2 1 5 5 7l18 11c3 1 5 2 7 2c15 0 157 -183 157 -459s-142 -459 -157 -459c-2 0 -4 1 -7 2z" />
    <glyph glyph-name="Japan1.8128" unicode="&#x24ac;" 
d="M723 -74h-4c-13 2 -31 4 -50 4s-37 -2 -51 -4h-2c-5 0 -10 4 -10 10c2 61 5 142 5 233v63c-44 -51 -102 -79 -167 -79c-126 0 -231 95 -231 289c0 163 87 295 248 295c66 0 123 -40 148 -64c0 21 -2 31 -3 42c0 6 2 14 12 14h3c4 -1 9 -1 13 -1c26 0 55 10 77 18
c4 1 8 2 10 2c8 0 10 -6 10 -16c-1 -67 -5 -187 -5 -297v-267c0 -90 3 -171 5 -232c0 -6 -1 -10 -8 -10zM471 221c106 0 143 142 143 240c0 90 -40 202 -130 202c-116 0 -142 -127 -142 -238c0 -90 36 -204 129 -204zM203 -66l-18 -11c-3 -1 -5 -2 -7 -2
c-15 0 -157 183 -157 459s142 459 157 459c2 0 4 -1 7 -2l18 -11c4 -2 5 -5 5 -7c0 -4 -3 -8 -5 -12c-84 -153 -112 -285 -112 -427s30 -280 112 -427c2 -4 5 -8 5 -12c0 -2 -1 -5 -5 -7zM815 -77l-18 11c-4 2 -5 5 -5 7c0 4 3 8 5 12c82 147 112 285 112 427
s-28 274 -112 427c-2 4 -5 8 -5 12c0 2 1 5 5 7l18 11c3 1 5 2 7 2c15 0 157 -183 157 -459s-142 -459 -157 -459c-2 0 -4 1 -7 2z" />
    <glyph glyph-name="Japan1.8129" unicode="&#x24ad;" 
d="M498 76h-4c-12 3 -31 4 -49 4c-19 0 -37 -1 -51 -4h-2c-6 0 -12 5 -12 11c2 63 5 122 5 200v168c0 67 -4 120 -5 176c0 6 3 11 10 11h2c4 -1 9 -1 15 -1c27 0 64 9 87 14h4c7 0 9 -5 9 -10l-5 -88c25 59 89 93 128 93c21 0 50 -4 70 -13c4 -1 6 -7 6 -12c0 -2 0 -3 -1 -5
c-4 -11 -15 -53 -15 -86c0 -6 -2 -8 -5 -8c-4 0 -10 3 -15 6c-19 11 -44 19 -68 19c-50 0 -100 -32 -100 -139v-125c0 -78 2 -134 5 -200c0 -6 -2 -11 -9 -11zM203 -66l-18 -11c-3 -1 -5 -2 -7 -2c-15 0 -157 183 -157 459s142 459 157 459c2 0 4 -1 7 -2l18 -11
c4 -2 5 -5 5 -7c0 -4 -3 -8 -5 -12c-84 -153 -112 -285 -112 -427s30 -280 112 -427c2 -4 5 -8 5 -12c0 -2 -1 -5 -5 -7zM815 -77l-18 11c-4 2 -5 5 -5 7c0 4 3 8 5 12c82 147 112 285 112 427s-28 274 -112 427c-2 4 -5 8 -5 12c0 2 1 5 5 7l18 11c3 1 5 2 7 2
c15 0 157 -183 157 -459s-142 -459 -157 -459c-2 0 -4 1 -7 2z" />
    <glyph glyph-name="Japan1.8130" unicode="&#x24ae;" 
d="M710 252c0 -87 -55 -168 -215 -168c-39 0 -108 2 -192 61c-4 2 -7 8 -7 14c0 1 1 3 1 4c4 11 9 46 9 79c0 7 4 9 8 9c5 0 10 -3 12 -7c11 -22 51 -92 152 -92c55 0 110 29 110 87c0 43 -37 67 -132 95c-91 26 -155 78 -155 167c0 91 61 165 198 165c55 0 111 -10 172 -48
c4 -2 7 -8 7 -14c0 -1 -1 -3 -1 -4c-4 -10 -9 -45 -9 -78c0 -7 -4 -11 -8 -11s-9 3 -12 9c-8 17 -51 84 -140 84c-61 0 -101 -32 -101 -76c0 -61 64 -71 110 -86c118 -38 193 -82 193 -190zM815 -77l-18 11c-4 2 -5 5 -5 7c0 4 3 8 5 12c82 147 112 285 112 427
s-28 274 -112 427c-2 4 -5 8 -5 12c0 2 1 5 5 7l18 11c3 1 5 2 7 2c15 0 157 -183 157 -459s-142 -459 -157 -459c-2 0 -4 1 -7 2zM203 -66l-18 -11c-3 -1 -5 -2 -7 -2c-15 0 -157 183 -157 459s142 459 157 459c2 0 4 -1 7 -2l18 -11c4 -2 5 -5 5 -7c0 -4 -3 -8 -5 -12
c-84 -153 -112 -285 -112 -427s30 -280 112 -427c2 -4 5 -8 5 -12c0 -2 -1 -5 -5 -7z" />
    <glyph glyph-name="Japan1.8131" unicode="&#x24af;" 
d="M653 95h2c10 0 17 -22 17 -40c0 -9 -2 -17 -7 -20c-28 -17 -73 -32 -121 -32c-120 0 -128 84 -128 142v368c-20 0 -50 -1 -83 -2c-7 0 -11 3 -11 10c0 1 0 4 1 6c2 6 3 13 3 21c0 6 -1 13 -3 19c-1 2 -1 4 -1 6c0 6 4 9 11 9c23 -1 57 -2 82 -2l-3 147c0 6 4 12 10 12
c34 1 76 19 98 35c1 1 3 1 5 1c6 0 14 -5 14 -13c-2 -61 -4 -121 -5 -182c24 0 68 1 111 2c8 0 14 -3 14 -9c0 -2 0 -3 -1 -5c-2 -7 -3 -14 -3 -21c0 -8 1 -15 3 -21c1 -2 1 -4 1 -5c0 -7 -6 -10 -14 -10c-43 1 -89 2 -112 2v-369c0 -38 19 -59 60 -59c17 0 36 4 60 10z
M203 -66l-18 -11c-3 -1 -5 -2 -7 -2c-15 0 -157 183 -157 459s142 459 157 459c2 0 4 -1 7 -2l18 -11c4 -2 5 -5 5 -7c0 -4 -3 -8 -5 -12c-84 -153 -112 -285 -112 -427s30 -280 112 -427c2 -4 5 -8 5 -12c0 -2 -1 -5 -5 -7zM815 -77l-18 11c-4 2 -5 5 -5 7c0 4 3 8 5 12
c82 147 112 285 112 427s-28 274 -112 427c-2 4 -5 8 -5 12c0 2 1 5 5 7l18 11c3 1 5 2 7 2c15 0 157 -183 157 -459s-142 -459 -157 -459c-2 0 -4 1 -7 2z" />
    <glyph glyph-name="Japan1.8132" unicode="&#x24b0;" 
d="M712 92h-2c-13 3 -32 4 -50 4s-36 -1 -49 -4h-4c-7 0 -9 5 -9 10c0 10 0 24 1 36c0 0 1 16 1 21c-28 -43 -86 -77 -152 -77c-131 0 -184 83 -184 235v163c0 66 -4 106 -5 163c0 5 4 13 12 13h1c5 -1 9 -1 14 -1c28 0 61 11 87 15h1c7 0 13 -6 13 -12
c-2 -52 -5 -112 -5 -179v-143c0 -119 16 -176 99 -176c55 0 120 57 120 131v186c0 68 -3 111 -5 169c0 6 2 11 9 11h4c4 -1 9 -1 14 -1c27 0 64 10 87 14h2c6 0 12 -5 12 -11c-2 -64 -5 -114 -5 -182v-181c0 -75 2 -133 5 -194c0 -6 -6 -10 -12 -10zM203 -66l-18 -11
c-3 -1 -5 -2 -7 -2c-15 0 -157 183 -157 459s142 459 157 459c2 0 4 -1 7 -2l18 -11c4 -2 5 -5 5 -7c0 -4 -3 -8 -5 -12c-84 -153 -112 -285 -112 -427s30 -280 112 -427c2 -4 5 -8 5 -12c0 -2 -1 -5 -5 -7zM815 -77l-18 11c-4 2 -5 5 -5 7c0 4 3 8 5 12
c82 147 112 285 112 427s-28 274 -112 427c-2 4 -5 8 -5 12c0 2 1 5 5 7l18 11c3 1 5 2 7 2c15 0 157 -183 157 -459s-142 -459 -157 -459c-2 0 -4 1 -7 2z" />
    <glyph glyph-name="Japan1.8133" unicode="&#x24b1;" 
d="M537 79h-3c-6 1 -15 2 -23 2c-11 0 -21 -1 -27 -2h-1c-8 0 -11 7 -13 13c-75 185 -150 366 -224 533c-2 4 -2 6 -2 9c0 6 4 8 11 8h13c28 0 74 10 99 14h2c5 0 9 -4 10 -8c36 -111 112 -317 152 -418c21 53 78 228 79 230c11 28 40 129 54 175c1 6 6 7 10 7h4
c4 -1 9 -1 13 -1c18 0 35 5 53 7h4c7 0 9 -3 9 -8c0 -2 0 -5 -2 -9c-25 -56 -64 -168 -75 -197c0 0 -85 -235 -129 -341c-3 -7 -5 -14 -14 -14zM203 -66l-18 -11c-3 -1 -5 -2 -7 -2c-15 0 -157 183 -157 459s142 459 157 459c2 0 4 -1 7 -2l18 -11c4 -2 5 -5 5 -7
c0 -4 -3 -8 -5 -12c-84 -153 -112 -285 -112 -427s30 -280 112 -427c2 -4 5 -8 5 -12c0 -2 -1 -5 -5 -7zM815 -77l-18 11c-4 2 -5 5 -5 7c0 4 3 8 5 12c82 147 112 285 112 427s-28 274 -112 427c-2 4 -5 8 -5 12c0 2 1 5 5 7l18 11c3 1 5 2 7 2c15 0 157 -183 157 -459
s-142 -459 -157 -459c-2 0 -4 1 -7 2z" />
    <glyph glyph-name="Japan1.8134" unicode="&#x24b2;" 
d="M322 73h-2c-6 0 -9 6 -11 11c-58 188 -105 361 -165 535c-1 3 -2 6 -2 8c0 6 4 10 10 10h2c3 0 7 -1 11 -1c22 0 54 7 82 14h2c5 0 9 -3 10 -7c36 -128 76 -283 108 -383c29 104 69 263 94 373c1 4 3 5 6 5c2 0 3 -1 5 -1s6 -1 9 -1c17 0 43 4 56 7h2c5 0 8 -3 9 -7
c32 -113 83 -283 116 -385c26 78 73 263 100 380c1 5 4 7 9 7h3c4 -1 8 -1 12 -1c17 0 36 5 51 7h5c5 0 7 -2 7 -7c0 -3 -43 -138 -47 -152c-42 -135 -79 -269 -123 -404c-2 -6 -4 -9 -9 -9c-1 0 -3 1 -4 1c-5 2 -15 3 -23 3c-9 0 -17 -1 -21 -2c-2 -1 -4 -1 -6 -1
c-4 0 -7 2 -9 7c-45 138 -83 286 -122 408c-35 -127 -70 -277 -104 -403c-2 -6 -3 -13 -9 -13c-1 0 -3 1 -4 1c-5 2 -15 2 -24 2c-10 0 -19 0 -24 -2zM203 -66l-18 -11c-3 -1 -5 -2 -7 -2c-15 0 -157 183 -157 459s142 459 157 459c2 0 4 -1 7 -2l18 -11c4 -2 5 -5 5 -7
c0 -4 -3 -8 -5 -12c-84 -153 -112 -285 -112 -427s30 -280 112 -427c2 -4 5 -8 5 -12c0 -2 -1 -5 -5 -7zM815 -77l-18 11c-4 2 -5 5 -5 7c0 4 3 8 5 12c82 147 112 285 112 427s-28 274 -112 427c-2 4 -5 8 -5 12c0 2 1 5 5 7l18 11c3 1 5 2 7 2c15 0 157 -183 157 -459
s-142 -459 -157 -459c-2 0 -4 1 -7 2z" />
    <glyph glyph-name="Japan1.8135" unicode="&#x24b3;" 
d="M760 97h-2c-19 2 -35 3 -52 3c-21 0 -42 -2 -69 -6h-1c-5 0 -9 6 -11 9c-37 61 -89 142 -138 213c-15 -22 -45 -64 -45 -64c-40 -57 -66 -102 -96 -149c-3 -4 -6 -8 -11 -8h-1c-15 3 -28 4 -40 4c-11 0 -21 -1 -30 -2h-5c-8 0 -12 4 -12 10c0 4 2 9 6 14
c42 55 81 102 129 168c0 0 41 58 62 86c-64 102 -129 194 -182 266c-2 2 -2 5 -2 8c0 6 3 12 11 12h2c4 0 8 -1 13 -1c24 0 56 6 91 14h1c4 0 8 -5 9 -7c28 -46 78 -121 129 -197c24 33 107 147 124 186c2 3 4 6 7 6h1c5 -1 11 -1 17 -1c23 0 47 5 69 7h1c7 0 10 -4 10 -9
c0 -4 -2 -9 -6 -14c-34 -44 -100 -122 -122 -153c0 0 -38 -54 -58 -82c64 -94 137 -197 205 -286c5 -6 8 -12 8 -17c0 -6 -4 -10 -12 -10zM203 -66l-18 -11c-3 -1 -5 -2 -7 -2c-15 0 -157 183 -157 459s142 459 157 459c2 0 4 -1 7 -2l18 -11c4 -2 5 -5 5 -7
c0 -4 -3 -8 -5 -12c-84 -153 -112 -285 -112 -427s30 -280 112 -427c2 -4 5 -8 5 -12c0 -2 -1 -5 -5 -7zM815 -77l-18 11c-4 2 -5 5 -5 7c0 4 3 8 5 12c82 147 112 285 112 427s-28 274 -112 427c-2 4 -5 8 -5 12c0 2 1 5 5 7l18 11c3 1 5 2 7 2c15 0 157 -183 157 -459
s-142 -459 -157 -459c-2 0 -4 1 -7 2z" />
    <glyph glyph-name="Japan1.8136" unicode="&#x24b4;" 
d="M306 -65h-2c-5 0 -8 4 -10 12c-5 26 -4 51 -19 74c-1 2 -2 4 -2 6c0 7 9 12 13 12h1c11 -2 21 -3 31 -3c70 0 117 57 148 119c8 16 16 40 22 55c-73 178 -152 357 -229 515c-2 3 -2 6 -2 8c0 6 5 9 11 9h3c3 0 7 -1 11 -1c27 0 70 9 99 15h3c5 0 7 -3 9 -7
c38 -95 115 -277 160 -379c18 45 54 132 54 132c13 32 59 159 85 233c2 5 4 9 9 9h2c4 -1 9 -1 14 -1c21 0 45 5 63 8h3c6 0 9 -3 9 -9c0 -2 0 -6 -2 -9c-52 -118 -95 -214 -112 -254c-54 -126 -66 -159 -133 -312c-55 -126 -119 -210 -239 -232zM203 -66l-18 -11
c-3 -1 -5 -2 -7 -2c-15 0 -157 183 -157 459s142 459 157 459c2 0 4 -1 7 -2l18 -11c4 -2 5 -5 5 -7c0 -4 -3 -8 -5 -12c-84 -153 -112 -285 -112 -427s30 -280 112 -427c2 -4 5 -8 5 -12c0 -2 -1 -5 -5 -7zM815 -77l-18 11c-4 2 -5 5 -5 7c0 4 3 8 5 12
c82 147 112 285 112 427s-28 274 -112 427c-2 4 -5 8 -5 12c0 2 1 5 5 7l18 11c3 1 5 2 7 2c15 0 157 -183 157 -459s-142 -459 -157 -459c-2 0 -4 1 -7 2z" />
    <glyph glyph-name="Japan1.8137" unicode="&#x24b5;" 
d="M708 100h-432c-15 0 -15 11 -15 18v20c0 6 0 16 4 22l293 433h-63c-44 0 -157 -2 -199 -5h-2c-5 0 -8 3 -8 9v2c3 13 4 21 4 28c0 8 -1 16 -4 28v3c0 5 4 8 10 8h2c29 -3 159 -6 207 -6h192c11 0 14 -7 14 -18v-26c0 -10 -4 -18 -8 -23l-292 -425h119c29 0 148 8 176 14
h3c6 0 8 -4 8 -9v-2c-2 -12 -3 -21 -3 -29c0 -9 1 -18 3 -30v-4c0 -6 -2 -8 -9 -8zM203 -66l-18 -11c-3 -1 -5 -2 -7 -2c-15 0 -157 183 -157 459s142 459 157 459c2 0 4 -1 7 -2l18 -11c4 -2 5 -5 5 -7c0 -4 -3 -8 -5 -12c-84 -153 -112 -285 -112 -427s30 -280 112 -427
c2 -4 5 -8 5 -12c0 -2 -1 -5 -5 -7zM815 -77l-18 11c-4 2 -5 5 -5 7c0 4 3 8 5 12c82 147 112 285 112 427s-28 274 -112 427c-2 4 -5 8 -5 12c0 2 1 5 5 7l18 11c3 1 5 2 7 2c15 0 157 -183 157 -459s-142 -459 -157 -459c-2 0 -4 1 -7 2z" />
    <glyph glyph-name="Japan1.8184" 
d="M152 -78h-7c-16 0 -44 -3 -62 -6h-1c-5 0 -9 4 -9 9c0 2 0 4 2 6l698 879c3 3 4 4 6 4s5 -1 10 -2h7c16 0 44 3 62 6h1c6 0 10 -4 10 -9c0 -2 0 -4 -2 -6l-699 -879c-3 -3 -4 -4 -6 -4s-5 1 -10 2zM894 -52h-312c-8 0 -12 14 -12 28c0 12 3 25 7 28c37 32 70 58 112 97
c105 95 107 168 107 188c0 44 -24 66 -67 66c-50 0 -92 -51 -109 -105c-4 -11 -8 -15 -12 -15c-5 0 -9 6 -10 14c-2 18 -8 57 -18 72c-1 2 -2 5 -2 7c0 11 62 83 170 83c82 0 161 -42 161 -135c0 -120 -123 -175 -200 -228c-8 -5 -15 -11 -22 -16h82c37 0 98 3 132 11
c4 1 7 1 10 1c4 0 7 -1 7 -6c0 -2 0 -4 -1 -7c-4 -12 -9 -42 -9 -61v-12c0 -8 -3 -10 -14 -10zM202 329h-4c-7 0 -9 5 -9 11c1 36 5 83 5 135v221c-76 -48 -106 -61 -113 -61c-5 0 -6 3 -6 7c0 2 1 5 1 6c1 3 1 6 1 9c0 9 -2 18 -5 25c-1 3 -2 6 -2 8c0 4 3 7 9 10
c50 21 91 47 137 80c3 2 6 4 12 4h7c12 0 37 3 51 7c3 1 6 1 9 1c5 0 9 -2 9 -11v-2c-2 -38 -4 -94 -4 -120v-185c0 -52 4 -95 5 -134c0 -5 -1 -12 -9 -12c-2 0 -3 1 -5 1c-13 3 -27 4 -41 4c-18 0 -35 -2 -48 -4z" />
    <glyph glyph-name="Japan1.8185" 
d="M835 -55h-4c-12 2 -26 3 -40 3c-13 0 -26 -1 -37 -3c-2 0 -4 -1 -5 -1c-9 0 -10 7 -10 12l2 64h-109c-15 0 -83 0 -107 -2c-5 0 -10 4 -10 9v3c1 3 1 7 1 12c0 6 0 13 -1 16v3c0 6 3 10 7 14c69 92 140 197 224 316c3 5 6 8 12 8h8c17 0 44 3 57 6c4 1 8 2 12 2
c5 0 8 -3 8 -11l2 -304c25 0 37 1 51 3h5c6 0 9 -2 9 -7v-4c-2 -8 -3 -21 -3 -33c0 -8 0 -16 2 -21c1 -2 1 -4 1 -6c0 -4 -2 -6 -8 -6c-2 0 -4 1 -6 1c-12 2 -21 2 -28 2c-12 0 -19 -1 -25 -1l2 -64c0 -6 -2 -11 -10 -11zM152 -78h-7c-16 0 -44 -3 -62 -6h-1c-5 0 -9 4 -9 9
c0 2 0 4 2 6l698 879c3 3 4 4 6 4s5 -1 10 -2h7c16 0 44 3 62 6h1c6 0 10 -4 10 -9c0 -2 0 -4 -2 -6l-699 -879c-3 -3 -4 -4 -6 -4s-5 1 -10 2zM202 329h-4c-7 0 -9 5 -9 11c1 36 5 83 5 135v221c-76 -48 -106 -61 -113 -61c-5 0 -6 3 -6 7c0 2 1 5 1 6c1 3 1 6 1 9
c0 9 -2 18 -5 25c-1 3 -2 6 -2 8c0 4 3 7 9 10c50 21 91 47 137 80c3 2 6 4 12 4h7c12 0 37 3 51 7c3 1 6 1 9 1c5 0 9 -2 9 -11v-2c-2 -38 -4 -94 -4 -120v-185c0 -52 4 -95 5 -134c0 -5 -1 -12 -9 -12c-2 0 -3 1 -5 1c-13 3 -27 4 -41 4c-18 0 -35 -2 -48 -4zM745 91v76
c0 19 4 108 5 142c-36 -53 -114 -171 -150 -218h145z" />
    <glyph glyph-name="Japan1.8224" unicode="&#x24ea;" 
d="M979 380c0 -264 -215 -479 -479 -479s-479 215 -479 479s215 479 479 479s479 -215 479 -479zM924 380c0 234 -190 424 -424 424s-424 -190 -424 -424s190 -424 424 -424s424 190 424 424zM499 58c-163 0 -270 118 -270 316c0 199 107 328 272 328s270 -130 270 -329
c0 -198 -102 -315 -272 -315zM501 116c114 0 132 115 132 258c0 134 -18 271 -132 271c-116 0 -134 -136 -134 -270c0 -172 32 -259 134 -259z" />
    <glyph glyph-name="Japan1.8225" unicode="&#x216a;" 
d="M676 -45h-2c-19 2 -39 3 -59 3c-31 0 -59 -2 -79 -6h-1c-3 0 -5 3 -7 6c-47 99 -114 221 -176 334c-27 -49 -83 -153 -83 -153c-18 -34 -61 -122 -94 -182c-2 -3 -4 -5 -7 -5h-2c-14 4 -32 6 -49 6c-13 0 -26 -1 -35 -4c-1 0 -3 -1 -4 -1c-5 0 -9 4 -9 9c0 2 0 4 2 7
c41 68 109 175 123 199c0 0 80 135 116 197c-70 136 -140 268 -210 394c-1 2 -1 4 -1 6c0 5 2 10 9 10h12c33 0 74 11 105 16h1c4 0 8 -3 9 -6c43 -87 106 -209 156 -306c45 84 96 196 138 290c2 4 5 7 9 7h1c6 -1 13 -2 21 -2c24 0 54 6 74 11c2 0 4 1 5 1c5 0 7 -3 7 -7
c0 -3 -1 -6 -4 -11c-37 -58 -84 -140 -101 -170c0 0 -73 -128 -108 -188c81 -148 170 -303 250 -441c1 -2 2 -4 2 -6c0 -4 -3 -8 -9 -8zM870 -48h-3c-19 4 -43 6 -66 6s-45 -2 -63 -6h-3c-7 0 -7 8 -7 13c1 83 6 151 6 246v324c0 90 -3 154 -6 228c0 10 3 12 8 12h2
c8 -1 16 -1 25 -1c36 0 75 7 103 12h3c8 0 9 -8 9 -13c-2 -72 -7 -148 -7 -238v-324c0 -95 6 -158 7 -246c0 -5 0 -13 -8 -13z" />
    <glyph glyph-name="Japan1.8226" unicode="&#x216b;" 
d="M545 -45h-4c-15 2 -32 3 -48 3c-26 0 -51 -2 -66 -6h-1c-3 0 -5 3 -6 6c-37 99 -85 216 -134 329c-22 -49 -64 -148 -64 -148c-14 -33 -47 -122 -73 -182c-1 -3 -7 -5 -11 -5h-1c-11 4 -27 6 -42 6c-12 0 -23 -1 -30 -4c-2 -1 -4 -1 -6 -1c-5 0 -7 3 -7 7c0 2 1 6 3 9
c33 68 89 175 100 199c0 0 63 135 91 197c-55 136 -116 268 -171 394c-1 3 -2 6 -2 8c0 5 3 8 8 8h10c28 0 72 11 96 16h1c3 0 6 -3 7 -6c34 -87 79 -210 118 -307c6 13 72 172 113 291c2 4 4 7 7 7h1c5 -1 11 -2 17 -2c22 0 50 6 65 11c3 1 5 1 7 1c4 0 6 -2 6 -5
c0 -4 0 -4 -84 -183c0 0 -63 -128 -90 -188c63 -148 131 -303 194 -441c2 -4 3 -7 3 -9c0 -4 -3 -5 -7 -5zM901 -48h-3c-17 4 -38 6 -59 6c-20 0 -39 -2 -55 -6h-2c-7 0 -7 8 -7 13c1 83 6 151 6 246v324c0 90 -3 154 -6 228c0 12 6 12 7 12h2c7 -1 15 -1 22 -1
c32 0 65 7 91 12h3c7 0 7 -8 7 -13c-2 -72 -5 -148 -5 -238v-324c0 -95 4 -158 5 -246c0 -12 -4 -13 -6 -13zM701 -48h-3c-17 4 -38 6 -59 6c-20 0 -39 -2 -55 -6h-2c-7 0 -7 8 -7 13c1 83 6 151 6 246v324c0 90 -3 154 -6 228c0 12 6 12 7 12h2c7 -1 15 -1 22 -1
c32 0 65 7 91 12h3c7 0 7 -8 7 -13c-2 -72 -5 -148 -5 -238v-324c0 -95 4 -158 5 -246c0 -12 -4 -13 -6 -13z" />
    <glyph glyph-name="Japan1.8227" 
d="M499 -38c-188 0 -281 153 -281 410c0 258 98 427 283 427s281 -171 281 -428s-92 -409 -283 -409zM501 21c130 0 143 157 143 350c0 181 -10 369 -143 369s-144 -187 -144 -368c0 -163 3 -351 144 -351zM815 -77l-18 11c-4 2 -5 5 -5 7c0 4 3 8 5 12
c82 147 112 285 112 427s-28 274 -112 427c-2 4 -5 8 -5 12c0 2 1 5 5 7l18 11c3 1 5 2 7 2c15 0 157 -183 157 -459s-142 -459 -157 -459c-2 0 -4 1 -7 2zM203 -66l-18 -11c-3 -1 -5 -2 -7 -2c-15 0 -157 183 -157 459s142 459 157 459c2 0 4 -1 7 -2l18 -11
c4 -2 5 -5 5 -7c0 -4 -3 -8 -5 -12c-84 -153 -112 -285 -112 -427s30 -280 112 -427c2 -4 5 -8 5 -12c0 -2 -1 -5 -5 -7z" />
    <glyph glyph-name="Japan1.8228" 
d="M298 5l-46 -67c-3 -4 -6 -5 -8 -5c-3 0 -6 1 -10 3c-6 3 -16 4 -28 4c-14 0 -30 -2 -39 -3h-1c-4 0 -6 2 -6 4c0 3 2 8 5 12l78 114c-47 71 -70 170 -70 292c0 264 114 435 328 436c80 0 145 -24 196 -67l44 65c2 4 4 5 6 5s5 -2 10 -3c2 0 5 -1 9 -1c16 0 44 4 61 6h2
c5 0 8 -3 8 -8c0 -2 -1 -4 -2 -6l-83 -121c50 -76 75 -181 75 -307c0 -263 -107 -418 -328 -418c-83 0 -150 23 -201 65zM500 2h2c161 0 176 159 176 356c0 65 -2 130 -11 188l-310 -455c25 -55 68 -89 143 -89zM331 190l309 454c-26 54 -69 89 -139 89
c-165 0 -178 -190 -178 -374c0 -61 1 -119 8 -169z" />
    <glyph glyph-name="Japan1.8286" unicode="&#x2776;" 
d="M979 380c0 -264 -215 -479 -479 -479s-479 215 -479 479s215 479 479 479s479 -215 479 -479zM562 59h4c9 0 14 6 14 13c-2 55 -6 113 -6 185v259c0 36 4 117 6 169c0 9 -5 14 -15 14c-2 0 -4 0 -7 -1c-22 -5 -40 -9 -53 -9h-8c-6 0 -10 -2 -17 -6
c-71 -46 -121 -74 -199 -104c-6 -2 -10 -6 -10 -13c0 -2 0 -5 1 -8c3 -10 7 -24 7 -37c0 -4 0 -7 -1 -11v-2c0 -5 4 -13 11 -13c2 0 35 9 158 79v-316c0 -72 -4 -135 -6 -186c0 -8 6 -13 14 -13h2c16 2 34 3 54 3c17 0 34 -1 51 -3z" />
    <glyph glyph-name="Japan1.8287" unicode="&#x2777;" 
d="M979 380c0 -264 -215 -479 -479 -479s-479 215 -479 479s215 479 479 479s479 -215 479 -479zM722 79v2c0 4 -1 7 -1 11c0 26 9 58 13 83v4c0 7 -4 10 -13 10h-4c-54 -6 -131 -13 -183 -13h-119c69 50 143 97 207 153c61 54 108 116 108 192c0 118 -93 187 -236 187
c-147 0 -226 -105 -226 -122c0 -3 1 -6 2 -9c8 -12 18 -36 21 -73c1 -8 6 -12 11 -12c6 0 13 4 16 13c30 87 98 134 160 134s106 -41 106 -107c0 -120 -112 -231 -317 -405c-4 -4 -6 -14 -6 -26c0 -17 4 -37 12 -37h433c10 0 16 6 16 15z" />
    </font>
</defs>
</svg>
